<svg width="120" height="48" viewBox="0 0 120 48" fill="none" xmlns="http://www.w3.org/2000/svg">
<rect width="120" height="48" rx="10" fill="#FF8000" fill-opacity="0.15"/>
<path d="M16.26 15.91C16.5133 15.95 16.7433 16.0533 16.95 16.22C17.1633 16.3867 17.33 16.5933 17.45 16.84C17.5767 17.0867 17.64 17.35 17.64 17.63C17.64 17.9833 17.55 18.3033 17.37 18.59C17.19 18.87 16.9267 19.0933 16.58 19.26C16.24 19.42 15.8367 19.5 15.37 19.5H12.77V12.53H15.27C15.7433 12.53 16.1467 12.61 16.48 12.77C16.8133 12.9233 17.0633 13.1333 17.23 13.4C17.3967 13.6667 17.48 13.9667 17.48 14.3C17.48 14.7133 17.3667 15.0567 17.14 15.33C16.92 15.5967 16.6267 15.79 16.26 15.91ZM13.68 15.54H15.21C15.6367 15.54 15.9667 15.44 16.2 15.24C16.4333 15.04 16.55 14.7633 16.55 14.41C16.55 14.0567 16.4333 13.78 16.2 13.58C15.9667 13.38 15.63 13.28 15.19 13.28H13.68V15.54ZM15.29 18.75C15.7433 18.75 16.0967 18.6433 16.35 18.43C16.6033 18.2167 16.73 17.92 16.73 17.54C16.73 17.1533 16.5967 16.85 16.33 16.63C16.0633 16.4033 15.7067 16.29 15.26 16.29H13.68V18.75H15.29ZM18.5628 16.74C18.5628 16.18 18.6761 15.69 18.9028 15.27C19.1295 14.8433 19.4395 14.5133 19.8328 14.28C20.2328 14.0467 20.6761 13.93 21.1628 13.93C21.6428 13.93 22.0595 14.0333 22.4128 14.24C22.7661 14.4467 23.0295 14.7067 23.2028 15.02V14.02H24.1228V19.5H23.2028V18.48C23.0228 18.8 22.7528 19.0667 22.3928 19.28C22.0395 19.4867 21.6261 19.59 21.1528 19.59C20.6661 19.59 20.2261 19.47 19.8328 19.23C19.4395 18.99 19.1295 18.6533 18.9028 18.22C18.6761 17.7867 18.5628 17.2933 18.5628 16.74ZM23.2028 16.75C23.2028 16.3367 23.1195 15.9767 22.9528 15.67C22.7861 15.3633 22.5595 15.13 22.2728 14.97C21.9928 14.8033 21.6828 14.72 21.3428 14.72C21.0028 14.72 20.6928 14.8 20.4128 14.96C20.1328 15.12 19.9095 15.3533 19.7428 15.66C19.5761 15.9667 19.4928 16.3267 19.4928 16.74C19.4928 17.16 19.5761 17.5267 19.7428 17.84C19.9095 18.1467 20.1328 18.3833 20.4128 18.55C20.6928 18.71 21.0028 18.79 21.3428 18.79C21.6828 18.79 21.9928 18.71 22.2728 18.55C22.5595 18.3833 22.7861 18.1467 22.9528 17.84C23.1195 17.5267 23.2028 17.1633 23.2028 16.75ZM26.7706 14.77V18C26.7706 18.2667 26.8273 18.4567 26.9406 18.57C27.054 18.6767 27.2506 18.73 27.5306 18.73H28.2006V19.5H27.3806C26.874 19.5 26.494 19.3833 26.2406 19.15C25.9873 18.9167 25.8606 18.5333 25.8606 18V14.77H25.1506V14.02H25.8606V12.64H26.7706V14.02H28.2006V14.77H26.7706ZM30.4132 14.77V18C30.4132 18.2667 30.4699 18.4567 30.5832 18.57C30.6965 18.6767 30.8932 18.73 31.1732 18.73H31.8432V19.5H31.0232C30.5165 19.5 30.1365 19.3833 29.8832 19.15C29.6299 18.9167 29.5032 18.5333 29.5032 18V14.77H28.7932V14.02H29.5032V12.64H30.4132V14.02H31.8432V14.77H30.4132ZM37.9458 16.55C37.9458 16.7233 37.9358 16.9067 37.9158 17.1H33.5358C33.5691 17.64 33.7524 18.0633 34.0858 18.37C34.4258 18.67 34.8358 18.82 35.3158 18.82C35.7091 18.82 36.0358 18.73 36.2958 18.55C36.5624 18.3633 36.7491 18.1167 36.8558 17.81H37.8358C37.6891 18.3367 37.3958 18.7667 36.9558 19.1C36.5158 19.4267 35.9691 19.59 35.3158 19.59C34.7958 19.59 34.3291 19.4733 33.9158 19.24C33.5091 19.0067 33.1891 18.6767 32.9558 18.25C32.7224 17.8167 32.6058 17.3167 32.6058 16.75C32.6058 16.1833 32.7191 15.6867 32.9458 15.26C33.1724 14.8333 33.4891 14.5067 33.8958 14.28C34.3091 14.0467 34.7824 13.93 35.3158 13.93C35.8358 13.93 36.2958 14.0433 36.6958 14.27C37.0958 14.4967 37.4024 14.81 37.6158 15.21C37.8358 15.6033 37.9458 16.05 37.9458 16.55ZM37.0058 16.36C37.0058 16.0133 36.9291 15.7167 36.7758 15.47C36.6224 15.2167 36.4124 15.0267 36.1458 14.9C35.8858 14.7667 35.5958 14.7 35.2758 14.7C34.8158 14.7 34.4224 14.8467 34.0958 15.14C33.7758 15.4333 33.5924 15.84 33.5458 16.36H37.0058ZM40.057 14.91C40.217 14.5967 40.4436 14.3533 40.737 14.18C41.037 14.0067 41.4003 13.92 41.827 13.92V14.86H41.587C40.567 14.86 40.057 15.4133 40.057 16.52V19.5H39.147V14.02H40.057V14.91ZM47.5974 14.02L44.2974 22.08H43.3574L44.4374 19.44L42.2274 14.02H43.2374L44.9574 18.46L46.6574 14.02H47.5974Z" fill="#808080"/>
<path d="M17.928 32.796H14.436L13.836 34.5H12.408L15.396 26.148H16.98L19.968 34.5H18.528L17.928 32.796ZM17.544 31.68L16.188 27.804L14.82 31.68H17.544ZM22.6352 25.62V34.5H21.2672V25.62H22.6352ZM30.4913 31.032C30.4913 31.28 30.4753 31.504 30.4433 31.704H25.3913C25.4313 32.232 25.6273 32.656 25.9793 32.976C26.3313 33.296 26.7633 33.456 27.2753 33.456C28.0113 33.456 28.5313 33.148 28.8353 32.532H30.3112C30.1113 33.14 29.7473 33.64 29.2193 34.032C28.6993 34.416 28.0513 34.608 27.2753 34.608C26.6433 34.608 26.0753 34.468 25.5713 34.188C25.0753 33.9 24.6833 33.5 24.3953 32.988C24.1153 32.468 23.9753 31.868 23.9753 31.188C23.9753 30.508 24.1113 29.912 24.3833 29.4C24.6633 28.88 25.0513 28.48 25.5473 28.2C26.0513 27.92 26.6273 27.78 27.2753 27.78C27.8993 27.78 28.4553 27.916 28.9433 28.188C29.4313 28.46 29.8113 28.844 30.0833 29.34C30.3553 29.828 30.4913 30.392 30.4913 31.032ZM29.0633 30.6C29.0553 30.096 28.8753 29.692 28.5233 29.388C28.1713 29.084 27.7353 28.932 27.2153 28.932C26.7433 28.932 26.3393 29.084 26.0033 29.388C25.6673 29.684 25.4673 30.088 25.4033 30.6H29.0633ZM33.2055 28.848C33.4055 28.512 33.6695 28.252 33.9975 28.068C34.3335 27.876 34.7295 27.78 35.1855 27.78V29.196H34.8375C34.3015 29.196 33.8935 29.332 33.6135 29.604C33.3415 29.876 33.2055 30.348 33.2055 31.02V34.5H31.8375V27.888H33.2055V28.848ZM38.039 29.004V32.664C38.039 32.912 38.095 33.092 38.207 33.204C38.327 33.308 38.527 33.36 38.807 33.36H39.647V34.5H38.567C37.951 34.5 37.479 34.356 37.151 34.068C36.823 33.78 36.659 33.312 36.659 32.664V29.004H35.879V27.888H36.659V26.244H38.039V27.888H39.647V29.004H38.039Z" fill="#1A1A1A"/>
<path d="M89 33V17C89 16.4477 89.4477 16 90 16H102C102.552 16 103 16.4477 103 17V33C103 33.5523 102.552 34 102 34H90C89.4477 34 89 33.5523 89 33ZM93 15V13H99V15H93Z" fill="#FF8000"/>
<path d="M97 30V28H95V30H97Z" fill="white"/>
<path d="M97 26V20H95V26H97Z" fill="white"/>
</svg>
