<svg width="120" height="48" viewBox="0 0 120 48" fill="none" xmlns="http://www.w3.org/2000/svg">
<rect width="120" height="48" rx="10" fill="black" fill-opacity="0.08"/>
<path d="M16.26 15.91C16.5133 15.95 16.7433 16.0533 16.95 16.22C17.1633 16.3867 17.33 16.5933 17.45 16.84C17.5767 17.0867 17.64 17.35 17.64 17.63C17.64 17.9833 17.55 18.3033 17.37 18.59C17.19 18.87 16.9267 19.0933 16.58 19.26C16.24 19.42 15.8367 19.5 15.37 19.5H12.77V12.53H15.27C15.7433 12.53 16.1467 12.61 16.48 12.77C16.8133 12.9233 17.0633 13.1333 17.23 13.4C17.3967 13.6667 17.48 13.9667 17.48 14.3C17.48 14.7133 17.3667 15.0567 17.14 15.33C16.92 15.5967 16.6267 15.79 16.26 15.91ZM13.68 15.54H15.21C15.6367 15.54 15.9667 15.44 16.2 15.24C16.4333 15.04 16.55 14.7633 16.55 14.41C16.55 14.0567 16.4333 13.78 16.2 13.58C15.9667 13.38 15.63 13.28 15.19 13.28H13.68V15.54ZM15.29 18.75C15.7433 18.75 16.0967 18.6433 16.35 18.43C16.6033 18.2167 16.73 17.92 16.73 17.54C16.73 17.1533 16.5967 16.85 16.33 16.63C16.0633 16.4033 15.7067 16.29 15.26 16.29H13.68V18.75H15.29ZM19.3728 13.13C19.1995 13.13 19.0528 13.07 18.9328 12.95C18.8128 12.83 18.7528 12.6833 18.7528 12.51C18.7528 12.3367 18.8128 12.19 18.9328 12.07C19.0528 11.95 19.1995 11.89 19.3728 11.89C19.5395 11.89 19.6795 11.95 19.7928 12.07C19.9128 12.19 19.9728 12.3367 19.9728 12.51C19.9728 12.6833 19.9128 12.83 19.7928 12.95C19.6795 13.07 19.5395 13.13 19.3728 13.13ZM19.8128 14.02V19.5H18.9028V14.02H19.8128ZM24.0338 13.92C24.7004 13.92 25.2404 14.1233 25.6538 14.53C26.0671 14.93 26.2738 15.51 26.2738 16.27V19.5H25.3738V16.4C25.3738 15.8533 25.2371 15.4367 24.9638 15.15C24.6904 14.8567 24.3171 14.71 23.8438 14.71C23.3638 14.71 22.9804 14.86 22.6938 15.16C22.4138 15.46 22.2738 15.8967 22.2738 16.47V19.5H21.3638V14.02H22.2738V14.8C22.4538 14.52 22.6971 14.3033 23.0038 14.15C23.3171 13.9967 23.6604 13.92 24.0338 13.92ZM27.4202 16.74C27.4202 16.18 27.5336 15.69 27.7602 15.27C27.9869 14.8433 28.2969 14.5133 28.6902 14.28C29.0902 14.0467 29.5369 13.93 30.0302 13.93C30.4569 13.93 30.8536 14.03 31.2202 14.23C31.5869 14.4233 31.8669 14.68 32.0602 15V12.1H32.9802V19.5H32.0602V18.47C31.8802 18.7967 31.6136 19.0667 31.2602 19.28C30.9069 19.4867 30.4936 19.59 30.0202 19.59C29.5336 19.59 29.0902 19.47 28.6902 19.23C28.2969 18.99 27.9869 18.6533 27.7602 18.22C27.5336 17.7867 27.4202 17.2933 27.4202 16.74ZM32.0602 16.75C32.0602 16.3367 31.9769 15.9767 31.8102 15.67C31.6436 15.3633 31.4169 15.13 31.1302 14.97C30.8502 14.8033 30.5402 14.72 30.2002 14.72C29.8602 14.72 29.5502 14.8 29.2702 14.96C28.9902 15.12 28.7669 15.3533 28.6002 15.66C28.4336 15.9667 28.3502 16.3267 28.3502 16.74C28.3502 17.16 28.4336 17.5267 28.6002 17.84C28.7669 18.1467 28.9902 18.3833 29.2702 18.55C29.5502 18.71 29.8602 18.79 30.2002 18.79C30.5402 18.79 30.8502 18.71 31.1302 18.55C31.4169 18.3833 31.6436 18.1467 31.8102 17.84C31.9769 17.5267 32.0602 17.1633 32.0602 16.75ZM34.988 13.13C34.8147 13.13 34.668 13.07 34.548 12.95C34.428 12.83 34.368 12.6833 34.368 12.51C34.368 12.3367 34.428 12.19 34.548 12.07C34.668 11.95 34.8147 11.89 34.988 11.89C35.1547 11.89 35.2947 11.95 35.408 12.07C35.528 12.19 35.588 12.3367 35.588 12.51C35.588 12.6833 35.528 12.83 35.408 12.95C35.2947 13.07 35.1547 13.13 34.988 13.13ZM35.428 14.02V19.5H34.518V14.02H35.428ZM39.649 13.92C40.3157 13.92 40.8557 14.1233 41.269 14.53C41.6823 14.93 41.889 15.51 41.889 16.27V19.5H40.989V16.4C40.989 15.8533 40.8523 15.4367 40.579 15.15C40.3057 14.8567 39.9323 14.71 39.459 14.71C38.979 14.71 38.5957 14.86 38.309 15.16C38.029 15.46 37.889 15.8967 37.889 16.47V19.5H36.979V14.02H37.889V14.8C38.069 14.52 38.3123 14.3033 38.619 14.15C38.9323 13.9967 39.2757 13.92 39.649 13.92ZM45.6355 13.93C46.1088 13.93 46.5221 14.0333 46.8755 14.24C47.2355 14.4467 47.5021 14.7067 47.6755 15.02V14.02H48.5955V19.62C48.5955 20.12 48.4888 20.5633 48.2755 20.95C48.0621 21.3433 47.7555 21.65 47.3555 21.87C46.9621 22.09 46.5021 22.2 45.9755 22.2C45.2555 22.2 44.6555 22.03 44.1755 21.69C43.6955 21.35 43.4121 20.8867 43.3255 20.3H44.2255C44.3255 20.6333 44.5321 20.9 44.8455 21.1C45.1588 21.3067 45.5355 21.41 45.9755 21.41C46.4755 21.41 46.8821 21.2533 47.1955 20.94C47.5155 20.6267 47.6755 20.1867 47.6755 19.62V18.47C47.4955 18.79 47.2288 19.0567 46.8755 19.27C46.5221 19.4833 46.1088 19.59 45.6355 19.59C45.1488 19.59 44.7055 19.47 44.3055 19.23C43.9121 18.99 43.6021 18.6533 43.3755 18.22C43.1488 17.7867 43.0355 17.2933 43.0355 16.74C43.0355 16.18 43.1488 15.69 43.3755 15.27C43.6021 14.8433 43.9121 14.5133 44.3055 14.28C44.7055 14.0467 45.1488 13.93 45.6355 13.93ZM47.6755 16.75C47.6755 16.3367 47.5921 15.9767 47.4255 15.67C47.2588 15.3633 47.0321 15.13 46.7455 14.97C46.4655 14.8033 46.1555 14.72 45.8155 14.72C45.4755 14.72 45.1655 14.8 44.8855 14.96C44.6055 15.12 44.3821 15.3533 44.2155 15.66C44.0488 15.9667 43.9655 16.3267 43.9655 16.74C43.9655 17.16 44.0488 17.5267 44.2155 17.84C44.3821 18.1467 44.6055 18.3833 44.8855 18.55C45.1655 18.71 45.4755 18.79 45.8155 18.79C46.1555 18.79 46.4655 18.71 46.7455 18.55C47.0321 18.3833 47.2588 18.1467 47.4255 17.84C47.5921 17.5267 47.6755 17.1633 47.6755 16.75Z" fill="#808080"/>
<path d="M19.752 34.5H18.384L14.268 28.272V34.5H12.9V26.148H14.268L18.384 32.364V26.148H19.752V34.5ZM24.4164 34.608C23.7924 34.608 23.2284 34.468 22.7244 34.188C22.2204 33.9 21.8244 33.5 21.5364 32.988C21.2484 32.468 21.1044 31.868 21.1044 31.188C21.1044 30.516 21.2524 29.92 21.5484 29.4C21.8444 28.88 22.2484 28.48 22.7604 28.2C23.2724 27.92 23.8444 27.78 24.4764 27.78C25.1084 27.78 25.6804 27.92 26.1924 28.2C26.7044 28.48 27.1084 28.88 27.4044 29.4C27.7004 29.92 27.8484 30.516 27.8484 31.188C27.8484 31.86 27.6964 32.456 27.3924 32.976C27.0884 33.496 26.6724 33.9 26.1444 34.188C25.6244 34.468 25.0484 34.608 24.4164 34.608ZM24.4164 33.42C24.7684 33.42 25.0964 33.336 25.4004 33.168C25.7124 33 25.9644 32.748 26.1564 32.412C26.3484 32.076 26.4444 31.668 26.4444 31.188C26.4444 30.708 26.3524 30.304 26.1684 29.976C25.9844 29.64 25.7404 29.388 25.4364 29.22C25.1324 29.052 24.8044 28.968 24.4524 28.968C24.1004 28.968 23.7724 29.052 23.4684 29.22C23.1724 29.388 22.9364 29.64 22.7604 29.976C22.5844 30.304 22.4964 30.708 22.4964 31.188C22.4964 31.9 22.6764 32.452 23.0364 32.844C23.4044 33.228 23.8644 33.42 24.4164 33.42ZM30.7968 29.004V32.664C30.7968 32.912 30.8528 33.092 30.9648 33.204C31.0848 33.308 31.2848 33.36 31.5648 33.36H32.4048V34.5H31.3248C30.7088 34.5 30.2368 34.356 29.9088 34.068C29.5808 33.78 29.4168 33.312 29.4168 32.664V29.004H28.6368V27.888H29.4168V26.244H30.7968V27.888H32.4048V29.004H30.7968ZM38.1508 28.872C38.3828 28.552 38.6988 28.292 39.0988 28.092C39.5068 27.884 39.9588 27.78 40.4548 27.78C41.0388 27.78 41.5668 27.92 42.0388 28.2C42.5108 28.48 42.8828 28.88 43.1548 29.4C43.4268 29.912 43.5628 30.5 43.5628 31.164C43.5628 31.828 43.4268 32.424 43.1548 32.952C42.8828 33.472 42.5068 33.88 42.0268 34.176C41.5548 34.464 41.0308 34.608 40.4548 34.608C39.9428 34.608 39.4868 34.508 39.0868 34.308C38.6948 34.108 38.3828 33.852 38.1508 33.54V34.5H36.7828V25.62H38.1508V28.872ZM42.1708 31.164C42.1708 30.708 42.0748 30.316 41.8828 29.988C41.6988 29.652 41.4508 29.4 41.1388 29.232C40.8348 29.056 40.5068 28.968 40.1548 28.968C39.8108 28.968 39.4828 29.056 39.1708 29.232C38.8668 29.408 38.6188 29.664 38.4268 30C38.2428 30.336 38.1508 30.732 38.1508 31.188C38.1508 31.644 38.2428 32.044 38.4268 32.388C38.6188 32.724 38.8668 32.98 39.1708 33.156C39.4828 33.332 39.8108 33.42 40.1548 33.42C40.5068 33.42 40.8348 33.332 41.1388 33.156C41.4508 32.972 41.6988 32.708 41.8828 32.364C42.0748 32.02 42.1708 31.62 42.1708 31.164ZM47.7836 34.608C47.1596 34.608 46.5956 34.468 46.0916 34.188C45.5876 33.9 45.1916 33.5 44.9036 32.988C44.6156 32.468 44.4716 31.868 44.4716 31.188C44.4716 30.516 44.6196 29.92 44.9156 29.4C45.2116 28.88 45.6156 28.48 46.1276 28.2C46.6396 27.92 47.2116 27.78 47.8436 27.78C48.4756 27.78 49.0476 27.92 49.5596 28.2C50.0716 28.48 50.4756 28.88 50.7716 29.4C51.0676 29.92 51.2156 30.516 51.2156 31.188C51.2156 31.86 51.0636 32.456 50.7596 32.976C50.4556 33.496 50.0396 33.9 49.5116 34.188C48.9916 34.468 48.4156 34.608 47.7836 34.608ZM47.7836 33.42C48.1356 33.42 48.4636 33.336 48.7676 33.168C49.0796 33 49.3316 32.748 49.5236 32.412C49.7156 32.076 49.8116 31.668 49.8116 31.188C49.8116 30.708 49.7196 30.304 49.5356 29.976C49.3516 29.64 49.1076 29.388 48.8036 29.22C48.4996 29.052 48.1716 28.968 47.8196 28.968C47.4676 28.968 47.1396 29.052 46.8356 29.22C46.5396 29.388 46.3036 29.64 46.1276 29.976C45.9516 30.304 45.8636 30.708 45.8636 31.188C45.8636 31.9 46.0436 32.452 46.4036 32.844C46.7716 33.228 47.2316 33.42 47.7836 33.42ZM58.556 27.888V34.5H57.188V33.72C56.972 33.992 56.688 34.208 56.336 34.368C55.992 34.52 55.624 34.596 55.232 34.596C54.712 34.596 54.244 34.488 53.828 34.272C53.42 34.056 53.096 33.736 52.856 33.312C52.624 32.888 52.508 32.376 52.508 31.776V27.888H53.864V31.572C53.864 32.164 54.012 32.62 54.308 32.94C54.604 33.252 55.008 33.408 55.52 33.408C56.032 33.408 56.436 33.252 56.732 32.94C57.036 32.62 57.188 32.164 57.188 31.572V27.888H58.556ZM63.6969 27.78C64.2169 27.78 64.6809 27.888 65.0889 28.104C65.5049 28.32 65.8289 28.64 66.0609 29.064C66.2929 29.488 66.4089 30 66.4089 30.6V34.5H65.0529V30.804C65.0529 30.212 64.9049 29.76 64.6089 29.448C64.3129 29.128 63.9089 28.968 63.3969 28.968C62.8849 28.968 62.4769 29.128 62.1729 29.448C61.8769 29.76 61.7289 30.212 61.7289 30.804V34.5H60.3609V27.888H61.7289V28.644C61.9529 28.372 62.2369 28.16 62.5809 28.008C62.9329 27.856 63.3049 27.78 63.6969 27.78ZM67.6979 31.164C67.6979 30.5 67.8339 29.912 68.1059 29.4C68.3859 28.888 68.7619 28.492 69.2339 28.212C69.7139 27.924 70.2459 27.78 70.8299 27.78C71.2619 27.78 71.6859 27.876 72.1019 28.068C72.5259 28.252 72.8619 28.5 73.1099 28.812V25.62H74.4899V34.5H73.1099V33.504C72.8859 33.824 72.5739 34.088 72.1739 34.296C71.7819 34.504 71.3299 34.608 70.8179 34.608C70.2419 34.608 69.7139 34.464 69.2339 34.176C68.7619 33.88 68.3859 33.472 68.1059 32.952C67.8339 32.424 67.6979 31.828 67.6979 31.164ZM73.1099 31.188C73.1099 30.732 73.0139 30.336 72.8219 30C72.6379 29.664 72.3939 29.408 72.0899 29.232C71.7859 29.056 71.4579 28.968 71.1059 28.968C70.7539 28.968 70.4259 29.056 70.1219 29.232C69.8179 29.4 69.5699 29.652 69.3779 29.988C69.1939 30.316 69.1019 30.708 69.1019 31.164C69.1019 31.62 69.1939 32.02 69.3779 32.364C69.5699 32.708 69.8179 32.972 70.1219 33.156C70.4339 33.332 70.7619 33.42 71.1059 33.42C71.4579 33.42 71.7859 33.332 72.0899 33.156C72.3939 32.98 72.6379 32.724 72.8219 32.388C73.0139 32.044 73.1099 31.644 73.1099 31.188Z" fill="#1A1A1A"/>
<path d="M96 34C90.4771 34 86 29.5228 86 24C86 18.4771 90.4771 14 96 14C101.523 14 106 18.4771 106 24C106 29.5228 101.523 34 96 34ZM95 27V29H97V27H95ZM97 25.3551C98.4457 24.9248 99.5 23.5855 99.5 22C99.5 20.067 97.933 18.5 96 18.5C94.302 18.5 92.8864 19.7092 92.5673 21.3135L94.5288 21.7058C94.6656 21.0182 95.2723 20.5 96 20.5C96.8284 20.5 97.5 21.1716 97.5 22C97.5 22.8284 96.8284 23.5 96 23.5C95.4477 23.5 95 23.9477 95 24.5V26H97V25.3551Z" fill="#808080"/>
</svg>
