<svg width="120" height="48" viewBox="0 0 120 48" fill="none" xmlns="http://www.w3.org/2000/svg">
<rect width="120" height="48" rx="10" fill="black" fill-opacity="0.08"/>
<path d="M16.26 15.91C16.5133 15.95 16.7433 16.0533 16.95 16.22C17.1633 16.3867 17.33 16.5933 17.45 16.84C17.5767 17.0867 17.64 17.35 17.64 17.63C17.64 17.9833 17.55 18.3033 17.37 18.59C17.19 18.87 16.9267 19.0933 16.58 19.26C16.24 19.42 15.8367 19.5 15.37 19.5H12.77V12.53H15.27C15.7433 12.53 16.1467 12.61 16.48 12.77C16.8133 12.9233 17.0633 13.1333 17.23 13.4C17.3967 13.6667 17.48 13.9667 17.48 14.3C17.48 14.7133 17.3667 15.0567 17.14 15.33C16.92 15.5967 16.6267 15.79 16.26 15.91ZM13.68 15.54H15.21C15.6367 15.54 15.9667 15.44 16.2 15.24C16.4333 15.04 16.55 14.7633 16.55 14.41C16.55 14.0567 16.4333 13.78 16.2 13.58C15.9667 13.38 15.63 13.28 15.19 13.28H13.68V15.54ZM15.29 18.75C15.7433 18.75 16.0967 18.6433 16.35 18.43C16.6033 18.2167 16.73 17.92 16.73 17.54C16.73 17.1533 16.5967 16.85 16.33 16.63C16.0633 16.4033 15.7067 16.29 15.26 16.29H13.68V18.75H15.29ZM19.3728 13.13C19.1995 13.13 19.0528 13.07 18.9328 12.95C18.8128 12.83 18.7528 12.6833 18.7528 12.51C18.7528 12.3367 18.8128 12.19 18.9328 12.07C19.0528 11.95 19.1995 11.89 19.3728 11.89C19.5395 11.89 19.6795 11.95 19.7928 12.07C19.9128 12.19 19.9728 12.3367 19.9728 12.51C19.9728 12.6833 19.9128 12.83 19.7928 12.95C19.6795 13.07 19.5395 13.13 19.3728 13.13ZM19.8128 14.02V19.5H18.9028V14.02H19.8128ZM24.0338 13.92C24.7004 13.92 25.2404 14.1233 25.6538 14.53C26.0671 14.93 26.2738 15.51 26.2738 16.27V19.5H25.3738V16.4C25.3738 15.8533 25.2371 15.4367 24.9638 15.15C24.6904 14.8567 24.3171 14.71 23.8438 14.71C23.3638 14.71 22.9804 14.86 22.6938 15.16C22.4138 15.46 22.2738 15.8967 22.2738 16.47V19.5H21.3638V14.02H22.2738V14.8C22.4538 14.52 22.6971 14.3033 23.0038 14.15C23.3171 13.9967 23.6604 13.92 24.0338 13.92ZM27.4202 16.74C27.4202 16.18 27.5336 15.69 27.7602 15.27C27.9869 14.8433 28.2969 14.5133 28.6902 14.28C29.0902 14.0467 29.5369 13.93 30.0302 13.93C30.4569 13.93 30.8536 14.03 31.2202 14.23C31.5869 14.4233 31.8669 14.68 32.0602 15V12.1H32.9802V19.5H32.0602V18.47C31.8802 18.7967 31.6136 19.0667 31.2602 19.28C30.9069 19.4867 30.4936 19.59 30.0202 19.59C29.5336 19.59 29.0902 19.47 28.6902 19.23C28.2969 18.99 27.9869 18.6533 27.7602 18.22C27.5336 17.7867 27.4202 17.2933 27.4202 16.74ZM32.0602 16.75C32.0602 16.3367 31.9769 15.9767 31.8102 15.67C31.6436 15.3633 31.4169 15.13 31.1302 14.97C30.8502 14.8033 30.5402 14.72 30.2002 14.72C29.8602 14.72 29.5502 14.8 29.2702 14.96C28.9902 15.12 28.7669 15.3533 28.6002 15.66C28.4336 15.9667 28.3502 16.3267 28.3502 16.74C28.3502 17.16 28.4336 17.5267 28.6002 17.84C28.7669 18.1467 28.9902 18.3833 29.2702 18.55C29.5502 18.71 29.8602 18.79 30.2002 18.79C30.5402 18.79 30.8502 18.71 31.1302 18.55C31.4169 18.3833 31.6436 18.1467 31.8102 17.84C31.9769 17.5267 32.0602 17.1633 32.0602 16.75ZM34.988 13.13C34.8147 13.13 34.668 13.07 34.548 12.95C34.428 12.83 34.368 12.6833 34.368 12.51C34.368 12.3367 34.428 12.19 34.548 12.07C34.668 11.95 34.8147 11.89 34.988 11.89C35.1547 11.89 35.2947 11.95 35.408 12.07C35.528 12.19 35.588 12.3367 35.588 12.51C35.588 12.6833 35.528 12.83 35.408 12.95C35.2947 13.07 35.1547 13.13 34.988 13.13ZM35.428 14.02V19.5H34.518V14.02H35.428ZM39.649 13.92C40.3157 13.92 40.8557 14.1233 41.269 14.53C41.6823 14.93 41.889 15.51 41.889 16.27V19.5H40.989V16.4C40.989 15.8533 40.8523 15.4367 40.579 15.15C40.3057 14.8567 39.9323 14.71 39.459 14.71C38.979 14.71 38.5957 14.86 38.309 15.16C38.029 15.46 37.889 15.8967 37.889 16.47V19.5H36.979V14.02H37.889V14.8C38.069 14.52 38.3123 14.3033 38.619 14.15C38.9323 13.9967 39.2757 13.92 39.649 13.92ZM45.6355 13.93C46.1088 13.93 46.5221 14.0333 46.8755 14.24C47.2355 14.4467 47.5021 14.7067 47.6755 15.02V14.02H48.5955V19.62C48.5955 20.12 48.4888 20.5633 48.2755 20.95C48.0621 21.3433 47.7555 21.65 47.3555 21.87C46.9621 22.09 46.5021 22.2 45.9755 22.2C45.2555 22.2 44.6555 22.03 44.1755 21.69C43.6955 21.35 43.4121 20.8867 43.3255 20.3H44.2255C44.3255 20.6333 44.5321 20.9 44.8455 21.1C45.1588 21.3067 45.5355 21.41 45.9755 21.41C46.4755 21.41 46.8821 21.2533 47.1955 20.94C47.5155 20.6267 47.6755 20.1867 47.6755 19.62V18.47C47.4955 18.79 47.2288 19.0567 46.8755 19.27C46.5221 19.4833 46.1088 19.59 45.6355 19.59C45.1488 19.59 44.7055 19.47 44.3055 19.23C43.9121 18.99 43.6021 18.6533 43.3755 18.22C43.1488 17.7867 43.0355 17.2933 43.0355 16.74C43.0355 16.18 43.1488 15.69 43.3755 15.27C43.6021 14.8433 43.9121 14.5133 44.3055 14.28C44.7055 14.0467 45.1488 13.93 45.6355 13.93ZM47.6755 16.75C47.6755 16.3367 47.5921 15.9767 47.4255 15.67C47.2588 15.3633 47.0321 15.13 46.7455 14.97C46.4655 14.8033 46.1555 14.72 45.8155 14.72C45.4755 14.72 45.1655 14.8 44.8855 14.96C44.6055 15.12 44.3821 15.3533 44.2155 15.66C44.0488 15.9667 43.9655 16.3267 43.9655 16.74C43.9655 17.16 44.0488 17.5267 44.2155 17.84C44.3821 18.1467 44.6055 18.3833 44.8855 18.55C45.1655 18.71 45.4755 18.79 45.8155 18.79C46.1555 18.79 46.4655 18.71 46.7455 18.55C47.0321 18.3833 47.2588 18.1467 47.4255 17.84C47.5921 17.5267 47.6755 17.1633 47.6755 16.75Z" fill="#808080"/>
<path d="M16.704 34.584C15.928 34.584 15.212 34.404 14.556 34.044C13.908 33.676 13.392 33.168 13.008 32.52C12.632 31.864 12.444 31.128 12.444 30.312C12.444 29.496 12.632 28.764 13.008 28.116C13.392 27.468 13.908 26.964 14.556 26.604C15.212 26.236 15.928 26.052 16.704 26.052C17.488 26.052 18.204 26.236 18.852 26.604C19.508 26.964 20.024 27.468 20.4 28.116C20.776 28.764 20.964 29.496 20.964 30.312C20.964 31.128 20.776 31.864 20.4 32.52C20.024 33.168 19.508 33.676 18.852 34.044C18.204 34.404 17.488 34.584 16.704 34.584ZM16.704 33.396C17.256 33.396 17.748 33.272 18.18 33.024C18.612 32.768 18.948 32.408 19.188 31.944C19.436 31.472 19.56 30.928 19.56 30.312C19.56 29.696 19.436 29.156 19.188 28.692C18.948 28.228 18.612 27.872 18.18 27.624C17.748 27.376 17.256 27.252 16.704 27.252C16.152 27.252 15.66 27.376 15.228 27.624C14.796 27.872 14.456 28.228 14.208 28.692C13.968 29.156 13.848 29.696 13.848 30.312C13.848 30.928 13.968 31.472 14.208 31.944C14.456 32.408 14.796 32.768 15.228 33.024C15.66 33.272 16.152 33.396 16.704 33.396ZM28.2982 27.888V34.5H26.9302V33.72C26.7142 33.992 26.4302 34.208 26.0782 34.368C25.7342 34.52 25.3662 34.596 24.9742 34.596C24.4542 34.596 23.9862 34.488 23.5702 34.272C23.1622 34.056 22.8382 33.736 22.5982 33.312C22.3662 32.888 22.2502 32.376 22.2502 31.776V27.888H23.6062V31.572C23.6062 32.164 23.7542 32.62 24.0502 32.94C24.3462 33.252 24.7502 33.408 25.2622 33.408C25.7742 33.408 26.1782 33.252 26.4742 32.94C26.7782 32.62 26.9302 32.164 26.9302 31.572V27.888H28.2982ZM31.6991 29.004V32.664C31.6991 32.912 31.7551 33.092 31.8671 33.204C31.9871 33.308 32.1871 33.36 32.4671 33.36H33.3071V34.5H32.2271C31.6111 34.5 31.1391 34.356 30.8111 34.068C30.4831 33.78 30.3191 33.312 30.3191 32.664V29.004H29.5391V27.888H30.3191V26.244H31.6991V27.888H33.3071V29.004H31.6991ZM40.5532 34.608C39.9292 34.608 39.3652 34.468 38.8612 34.188C38.3572 33.9 37.9612 33.5 37.6732 32.988C37.3852 32.468 37.2412 31.868 37.2412 31.188C37.2412 30.516 37.3892 29.92 37.6852 29.4C37.9812 28.88 38.3852 28.48 38.8972 28.2C39.4092 27.92 39.9812 27.78 40.6132 27.78C41.2452 27.78 41.8172 27.92 42.3292 28.2C42.8412 28.48 43.2452 28.88 43.5412 29.4C43.8372 29.92 43.9852 30.516 43.9852 31.188C43.9852 31.86 43.8332 32.456 43.5292 32.976C43.2252 33.496 42.8092 33.9 42.2812 34.188C41.7612 34.468 41.1852 34.608 40.5532 34.608ZM40.5532 33.42C40.9052 33.42 41.2332 33.336 41.5372 33.168C41.8492 33 42.1012 32.748 42.2932 32.412C42.4852 32.076 42.5812 31.668 42.5812 31.188C42.5812 30.708 42.4892 30.304 42.3052 29.976C42.1212 29.64 41.8772 29.388 41.5732 29.22C41.2692 29.052 40.9412 28.968 40.5892 28.968C40.2372 28.968 39.9092 29.052 39.6052 29.22C39.3092 29.388 39.0732 29.64 38.8972 29.976C38.7212 30.304 38.6332 30.708 38.6332 31.188C38.6332 31.9 38.8132 32.452 39.1732 32.844C39.5412 33.228 40.0012 33.42 40.5532 33.42ZM48.1095 29.004H46.8855V34.5H45.5055V29.004H44.7255V27.888H45.5055V27.42C45.5055 26.66 45.7055 26.108 46.1055 25.764C46.5135 25.412 47.1495 25.236 48.0135 25.236V26.376C47.5975 26.376 47.3055 26.456 47.1375 26.616C46.9695 26.768 46.8855 27.036 46.8855 27.42V27.888H48.1095V29.004ZM54.8391 34.608C54.3191 34.608 53.8511 34.516 53.4351 34.332C53.0271 34.14 52.7031 33.884 52.4631 33.564C52.2231 33.236 52.0951 32.872 52.0791 32.472H53.4951C53.5191 32.752 53.6511 32.988 53.8911 33.18C54.1391 33.364 54.4471 33.456 54.8151 33.456C55.1991 33.456 55.4951 33.384 55.7031 33.24C55.9191 33.088 56.0271 32.896 56.0271 32.664C56.0271 32.416 55.9071 32.232 55.6671 32.112C55.4351 31.992 55.0631 31.86 54.5511 31.716C54.0551 31.58 53.6511 31.448 53.3391 31.32C53.0271 31.192 52.7551 30.996 52.5231 30.732C52.2991 30.468 52.1871 30.12 52.1871 29.688C52.1871 29.336 52.2911 29.016 52.4991 28.728C52.7071 28.432 53.0031 28.2 53.3871 28.032C53.7791 27.864 54.2271 27.78 54.7311 27.78C55.4831 27.78 56.0871 27.972 56.5431 28.356C57.0071 28.732 57.2551 29.248 57.2871 29.904H55.9191C55.8951 29.608 55.7751 29.372 55.5591 29.196C55.3431 29.02 55.0511 28.932 54.6831 28.932C54.3231 28.932 54.0471 29 53.8551 29.136C53.6631 29.272 53.5671 29.452 53.5671 29.676C53.5671 29.852 53.6311 30 53.7591 30.12C53.8871 30.24 54.0431 30.336 54.2271 30.408C54.4111 30.472 54.6831 30.556 55.0431 30.66C55.5231 30.788 55.9151 30.92 56.2191 31.056C56.5311 31.184 56.7991 31.376 57.0231 31.632C57.2471 31.888 57.3631 32.228 57.3711 32.652C57.3711 33.028 57.2671 33.364 57.0591 33.66C56.8511 33.956 56.5551 34.188 56.1711 34.356C55.7951 34.524 55.3511 34.608 54.8391 34.608ZM64.8012 27.888L60.7452 37.608H59.3292L60.6732 34.392L58.0692 27.888H59.5932L61.4532 32.928L63.3852 27.888H64.8012ZM69.1696 27.78C69.6896 27.78 70.1536 27.888 70.5616 28.104C70.9776 28.32 71.3016 28.64 71.5336 29.064C71.7656 29.488 71.8816 30 71.8816 30.6V34.5H70.5256V30.804C70.5256 30.212 70.3776 29.76 70.0816 29.448C69.7856 29.128 69.3816 28.968 68.8696 28.968C68.3576 28.968 67.9496 29.128 67.6456 29.448C67.3496 29.76 67.2016 30.212 67.2016 30.804V34.5H65.8336V27.888H67.2016V28.644C67.4256 28.372 67.7096 28.16 68.0536 28.008C68.4056 27.856 68.7776 27.78 69.1696 27.78ZM73.1706 31.188C73.1706 30.508 73.3066 29.912 73.5786 29.4C73.8586 28.88 74.2426 28.48 74.7306 28.2C75.2186 27.92 75.7786 27.78 76.4106 27.78C77.2106 27.78 77.8706 27.972 78.3906 28.356C78.9186 28.732 79.2746 29.272 79.4586 29.976H77.9826C77.8626 29.648 77.6706 29.392 77.4066 29.208C77.1426 29.024 76.8106 28.932 76.4106 28.932C75.8506 28.932 75.4026 29.132 75.0666 29.532C74.7386 29.924 74.5746 30.476 74.5746 31.188C74.5746 31.9 74.7386 32.456 75.0666 32.856C75.4026 33.256 75.8506 33.456 76.4106 33.456C77.2026 33.456 77.7266 33.108 77.9826 32.412H79.4586C79.2666 33.084 78.9066 33.62 78.3786 34.02C77.8506 34.412 77.1946 34.608 76.4106 34.608C75.7786 34.608 75.2186 34.468 74.7306 34.188C74.2426 33.9 73.8586 33.5 73.5786 32.988C73.3066 32.468 73.1706 31.868 73.1706 31.188Z" fill="#1A1A1A"/>
<path fill-rule="evenodd" clip-rule="evenodd" d="M107 18C107 20.7614 104.761 23 102 23C99.2386 23 97 20.7614 97 18C97 15.2386 99.2386 13 102 13C104.761 13 107 15.2386 107 18ZM104.5 19.5L103 18L104.5 16.5L103.5 15.5L102 17L100.5 15.5L99.5 16.5L101 18L99.5 19.5L100.5 20.5L102 19L103.5 20.5L104.5 19.5Z" fill="#808080"/>
<path d="M102 25C103.5 25 104.889 24.5284 106.028 23.7254C106.643 24.667 107 25.7918 107 27C107 30.3137 104.314 33 101 33H91C87.6863 33 85 30.3137 85 27C85 24.3846 86.6735 22.16 89.008 21.3386C89.0027 21.2264 89 21.1135 89 21C89 17.134 92.134 14 96 14C96.0842 14 96.1681 14.0015 96.2516 14.0044C95.4626 15.1374 95 16.5147 95 18C95 21.866 98.134 25 102 25Z" fill="#808080"/>
</svg>
