<svg width="120" height="48" viewBox="0 0 120 48" fill="none" xmlns="http://www.w3.org/2000/svg">
<rect width="120" height="48" rx="10" fill="#46BEAB" fill-opacity="0.08"/>
<path d="M16.26 15.91C16.5133 15.95 16.7433 16.0533 16.95 16.22C17.1633 16.3867 17.33 16.5933 17.45 16.84C17.5767 17.0867 17.64 17.35 17.64 17.63C17.64 17.9833 17.55 18.3033 17.37 18.59C17.19 18.87 16.9267 19.0933 16.58 19.26C16.24 19.42 15.8367 19.5 15.37 19.5H12.77V12.53H15.27C15.7433 12.53 16.1467 12.61 16.48 12.77C16.8133 12.9233 17.0633 13.1333 17.23 13.4C17.3967 13.6667 17.48 13.9667 17.48 14.3C17.48 14.7133 17.3667 15.0567 17.14 15.33C16.92 15.5967 16.6267 15.79 16.26 15.91ZM13.68 15.54H15.21C15.6367 15.54 15.9667 15.44 16.2 15.24C16.4333 15.04 16.55 14.7633 16.55 14.41C16.55 14.0567 16.4333 13.78 16.2 13.58C15.9667 13.38 15.63 13.28 15.19 13.28H13.68V15.54ZM15.29 18.75C15.7433 18.75 16.0967 18.6433 16.35 18.43C16.6033 18.2167 16.73 17.92 16.73 17.54C16.73 17.1533 16.5967 16.85 16.33 16.63C16.0633 16.4033 15.7067 16.29 15.26 16.29H13.68V18.75H15.29ZM19.3728 13.13C19.1995 13.13 19.0528 13.07 18.9328 12.95C18.8128 12.83 18.7528 12.6833 18.7528 12.51C18.7528 12.3367 18.8128 12.19 18.9328 12.07C19.0528 11.95 19.1995 11.89 19.3728 11.89C19.5395 11.89 19.6795 11.95 19.7928 12.07C19.9128 12.19 19.9728 12.3367 19.9728 12.51C19.9728 12.6833 19.9128 12.83 19.7928 12.95C19.6795 13.07 19.5395 13.13 19.3728 13.13ZM19.8128 14.02V19.5H18.9028V14.02H19.8128ZM24.0338 13.92C24.7004 13.92 25.2404 14.1233 25.6538 14.53C26.0671 14.93 26.2738 15.51 26.2738 16.27V19.5H25.3738V16.4C25.3738 15.8533 25.2371 15.4367 24.9638 15.15C24.6904 14.8567 24.3171 14.71 23.8438 14.71C23.3638 14.71 22.9804 14.86 22.6938 15.16C22.4138 15.46 22.2738 15.8967 22.2738 16.47V19.5H21.3638V14.02H22.2738V14.8C22.4538 14.52 22.6971 14.3033 23.0038 14.15C23.3171 13.9967 23.6604 13.92 24.0338 13.92ZM27.4202 16.74C27.4202 16.18 27.5336 15.69 27.7602 15.27C27.9869 14.8433 28.2969 14.5133 28.6902 14.28C29.0902 14.0467 29.5369 13.93 30.0302 13.93C30.4569 13.93 30.8536 14.03 31.2202 14.23C31.5869 14.4233 31.8669 14.68 32.0602 15V12.1H32.9802V19.5H32.0602V18.47C31.8802 18.7967 31.6136 19.0667 31.2602 19.28C30.9069 19.4867 30.4936 19.59 30.0202 19.59C29.5336 19.59 29.0902 19.47 28.6902 19.23C28.2969 18.99 27.9869 18.6533 27.7602 18.22C27.5336 17.7867 27.4202 17.2933 27.4202 16.74ZM32.0602 16.75C32.0602 16.3367 31.9769 15.9767 31.8102 15.67C31.6436 15.3633 31.4169 15.13 31.1302 14.97C30.8502 14.8033 30.5402 14.72 30.2002 14.72C29.8602 14.72 29.5502 14.8 29.2702 14.96C28.9902 15.12 28.7669 15.3533 28.6002 15.66C28.4336 15.9667 28.3502 16.3267 28.3502 16.74C28.3502 17.16 28.4336 17.5267 28.6002 17.84C28.7669 18.1467 28.9902 18.3833 29.2702 18.55C29.5502 18.71 29.8602 18.79 30.2002 18.79C30.5402 18.79 30.8502 18.71 31.1302 18.55C31.4169 18.3833 31.6436 18.1467 31.8102 17.84C31.9769 17.5267 32.0602 17.1633 32.0602 16.75ZM34.988 13.13C34.8147 13.13 34.668 13.07 34.548 12.95C34.428 12.83 34.368 12.6833 34.368 12.51C34.368 12.3367 34.428 12.19 34.548 12.07C34.668 11.95 34.8147 11.89 34.988 11.89C35.1547 11.89 35.2947 11.95 35.408 12.07C35.528 12.19 35.588 12.3367 35.588 12.51C35.588 12.6833 35.528 12.83 35.408 12.95C35.2947 13.07 35.1547 13.13 34.988 13.13ZM35.428 14.02V19.5H34.518V14.02H35.428ZM39.649 13.92C40.3157 13.92 40.8557 14.1233 41.269 14.53C41.6823 14.93 41.889 15.51 41.889 16.27V19.5H40.989V16.4C40.989 15.8533 40.8523 15.4367 40.579 15.15C40.3057 14.8567 39.9323 14.71 39.459 14.71C38.979 14.71 38.5957 14.86 38.309 15.16C38.029 15.46 37.889 15.8967 37.889 16.47V19.5H36.979V14.02H37.889V14.8C38.069 14.52 38.3123 14.3033 38.619 14.15C38.9323 13.9967 39.2757 13.92 39.649 13.92ZM45.6355 13.93C46.1088 13.93 46.5221 14.0333 46.8755 14.24C47.2355 14.4467 47.5021 14.7067 47.6755 15.02V14.02H48.5955V19.62C48.5955 20.12 48.4888 20.5633 48.2755 20.95C48.0621 21.3433 47.7555 21.65 47.3555 21.87C46.9621 22.09 46.5021 22.2 45.9755 22.2C45.2555 22.2 44.6555 22.03 44.1755 21.69C43.6955 21.35 43.4121 20.8867 43.3255 20.3H44.2255C44.3255 20.6333 44.5321 20.9 44.8455 21.1C45.1588 21.3067 45.5355 21.41 45.9755 21.41C46.4755 21.41 46.8821 21.2533 47.1955 20.94C47.5155 20.6267 47.6755 20.1867 47.6755 19.62V18.47C47.4955 18.79 47.2288 19.0567 46.8755 19.27C46.5221 19.4833 46.1088 19.59 45.6355 19.59C45.1488 19.59 44.7055 19.47 44.3055 19.23C43.9121 18.99 43.6021 18.6533 43.3755 18.22C43.1488 17.7867 43.0355 17.2933 43.0355 16.74C43.0355 16.18 43.1488 15.69 43.3755 15.27C43.6021 14.8433 43.9121 14.5133 44.3055 14.28C44.7055 14.0467 45.1488 13.93 45.6355 13.93ZM47.6755 16.75C47.6755 16.3367 47.5921 15.9767 47.4255 15.67C47.2588 15.3633 47.0321 15.13 46.7455 14.97C46.4655 14.8033 46.1555 14.72 45.8155 14.72C45.4755 14.72 45.1655 14.8 44.8855 14.96C44.6055 15.12 44.3821 15.3533 44.2155 15.66C44.0488 15.9667 43.9655 16.3267 43.9655 16.74C43.9655 17.16 44.0488 17.5267 44.2155 17.84C44.3821 18.1467 44.6055 18.3833 44.8855 18.55C45.1655 18.71 45.4755 18.79 45.8155 18.79C46.1555 18.79 46.4655 18.71 46.7455 18.55C47.0321 18.3833 47.2588 18.1467 47.4255 17.84C47.5921 17.5267 47.6755 17.1633 47.6755 16.75Z" fill="#808080"/>
<path d="M15.648 34.584C15.088 34.584 14.584 34.488 14.136 34.296C13.688 34.096 13.336 33.816 13.08 33.456C12.824 33.096 12.696 32.676 12.696 32.196H14.16C14.192 32.556 14.332 32.852 14.58 33.084C14.836 33.316 15.192 33.432 15.648 33.432C16.12 33.432 16.488 33.32 16.752 33.096C17.016 32.864 17.148 32.568 17.148 32.208C17.148 31.928 17.064 31.7 16.896 31.524C16.736 31.348 16.532 31.212 16.284 31.116C16.044 31.02 15.708 30.916 15.276 30.804C14.732 30.66 14.288 30.516 13.944 30.372C13.608 30.22 13.32 29.988 13.08 29.676C12.84 29.364 12.72 28.948 12.72 28.428C12.72 27.948 12.84 27.528 13.08 27.168C13.32 26.808 13.656 26.532 14.088 26.34C14.52 26.148 15.02 26.052 15.588 26.052C16.396 26.052 17.056 26.256 17.568 26.664C18.088 27.064 18.376 27.616 18.432 28.32H16.92C16.896 28.016 16.752 27.756 16.488 27.54C16.224 27.324 15.876 27.216 15.444 27.216C15.052 27.216 14.732 27.316 14.484 27.516C14.236 27.716 14.112 28.004 14.112 28.38C14.112 28.636 14.188 28.848 14.34 29.016C14.5 29.176 14.7 29.304 14.94 29.4C15.18 29.496 15.508 29.6 15.924 29.712C16.476 29.864 16.924 30.016 17.268 30.168C17.62 30.32 17.916 30.556 18.156 30.876C18.404 31.188 18.528 31.608 18.528 32.136C18.528 32.56 18.412 32.96 18.18 33.336C17.956 33.712 17.624 34.016 17.184 34.248C16.752 34.472 16.24 34.584 15.648 34.584ZM26.0942 27.888L22.0382 37.608H20.6222L21.9662 34.392L19.3622 27.888H20.8862L22.7462 32.928L24.6782 27.888H26.0942ZM30.4626 27.78C30.9826 27.78 31.4466 27.888 31.8546 28.104C32.2706 28.32 32.5946 28.64 32.8266 29.064C33.0586 29.488 33.1746 30 33.1746 30.6V34.5H31.8186V30.804C31.8186 30.212 31.6706 29.76 31.3746 29.448C31.0786 29.128 30.6746 28.968 30.1626 28.968C29.6506 28.968 29.2426 29.128 28.9386 29.448C28.6426 29.76 28.4946 30.212 28.4946 30.804V34.5H27.1266V27.888H28.4946V28.644C28.7186 28.372 29.0026 28.16 29.3466 28.008C29.6986 27.856 30.0706 27.78 30.4626 27.78ZM34.4635 31.188C34.4635 30.508 34.5995 29.912 34.8715 29.4C35.1515 28.88 35.5355 28.48 36.0235 28.2C36.5115 27.92 37.0715 27.78 37.7035 27.78C38.5035 27.78 39.1635 27.972 39.6835 28.356C40.2115 28.732 40.5675 29.272 40.7515 29.976H39.2755C39.1555 29.648 38.9635 29.392 38.6995 29.208C38.4355 29.024 38.1035 28.932 37.7035 28.932C37.1435 28.932 36.6955 29.132 36.3595 29.532C36.0315 29.924 35.8675 30.476 35.8675 31.188C35.8675 31.9 36.0315 32.456 36.3595 32.856C36.6955 33.256 37.1435 33.456 37.7035 33.456C38.4955 33.456 39.0195 33.108 39.2755 32.412H40.7515C40.5595 33.084 40.1995 33.62 39.6715 34.02C39.1435 34.412 38.4875 34.608 37.7035 34.608C37.0715 34.608 36.5115 34.468 36.0235 34.188C35.5355 33.9 35.1515 33.5 34.8715 32.988C34.5995 32.468 34.4635 31.868 34.4635 31.188ZM48.1748 31.032C48.1748 31.28 48.1588 31.504 48.1268 31.704H43.0748C43.1148 32.232 43.3108 32.656 43.6628 32.976C44.0148 33.296 44.4468 33.456 44.9588 33.456C45.6948 33.456 46.2148 33.148 46.5188 32.532H47.9948C47.7948 33.14 47.4308 33.64 46.9028 34.032C46.3828 34.416 45.7348 34.608 44.9588 34.608C44.3268 34.608 43.7588 34.468 43.2548 34.188C42.7588 33.9 42.3668 33.5 42.0788 32.988C41.7988 32.468 41.6588 31.868 41.6588 31.188C41.6588 30.508 41.7948 29.912 42.0668 29.4C42.3468 28.88 42.7348 28.48 43.2308 28.2C43.7348 27.92 44.3108 27.78 44.9588 27.78C45.5828 27.78 46.1388 27.916 46.6268 28.188C47.1148 28.46 47.4948 28.844 47.7668 29.34C48.0388 29.828 48.1748 30.392 48.1748 31.032ZM46.7468 30.6C46.7388 30.096 46.5588 29.692 46.2068 29.388C45.8548 29.084 45.4188 28.932 44.8988 28.932C44.4268 28.932 44.0228 29.084 43.6868 29.388C43.3508 29.684 43.1508 30.088 43.0868 30.6H46.7468ZM49.0651 31.164C49.0651 30.5 49.2011 29.912 49.4731 29.4C49.7531 28.888 50.1291 28.492 50.6011 28.212C51.0811 27.924 51.6131 27.78 52.1971 27.78C52.6291 27.78 53.0531 27.876 53.4691 28.068C53.8931 28.252 54.2291 28.5 54.4771 28.812V25.62H55.8571V34.5H54.4771V33.504C54.2531 33.824 53.9411 34.088 53.5411 34.296C53.1491 34.504 52.6971 34.608 52.1851 34.608C51.6091 34.608 51.0811 34.464 50.6011 34.176C50.1291 33.88 49.7531 33.472 49.4731 32.952C49.2011 32.424 49.0651 31.828 49.0651 31.164ZM54.4771 31.188C54.4771 30.732 54.3811 30.336 54.1891 30C54.0051 29.664 53.7611 29.408 53.4571 29.232C53.1531 29.056 52.8251 28.968 52.4731 28.968C52.1211 28.968 51.7931 29.056 51.4891 29.232C51.1851 29.4 50.9371 29.652 50.7451 29.988C50.5611 30.316 50.4691 30.708 50.4691 31.164C50.4691 31.62 50.5611 32.02 50.7451 32.364C50.9371 32.708 51.1851 32.972 51.4891 33.156C51.8011 33.332 52.1291 33.42 52.4731 33.42C52.8251 33.42 53.1531 33.332 53.4571 33.156C53.7611 32.98 54.0051 32.724 54.1891 32.388C54.3811 32.044 54.4771 31.644 54.4771 31.188Z" fill="#1A1A1A"/>
<path fill-rule="evenodd" clip-rule="evenodd" d="M107 18C107 20.7614 104.761 23 102 23C99.2386 23 97 20.7614 97 18C97 15.2386 99.2386 13 102 13C104.761 13 107 15.2386 107 18ZM99 17.6358L101.5 20.1358L105 16.6358L104 15.6357L101.5 18.1358L100 16.6358L99 17.6358Z" fill="#00A79D"/>
<path d="M102 25C103.5 25 104.889 24.5284 106.028 23.7254C106.643 24.667 107 25.7918 107 27C107 30.3137 104.314 33 101 33H91C87.6863 33 85 30.3137 85 27C85 24.3846 86.6735 22.16 89.008 21.3386C89.0027 21.2264 89 21.1135 89 21C89 17.134 92.134 14 96 14C96.0842 14 96.1681 14.0015 96.2516 14.0044C95.4626 15.1374 95 16.5147 95 18C95 21.866 98.134 25 102 25Z" fill="#00A79D"/>
</svg>
