<svg width="120" height="48" viewBox="0 0 120 48" fill="none" xmlns="http://www.w3.org/2000/svg">
<rect width="120" height="48" rx="10" fill="#177EE5" fill-opacity="0.08"/>
<path d="M16.26 15.91C16.5133 15.95 16.7433 16.0533 16.95 16.22C17.1633 16.3867 17.33 16.5933 17.45 16.84C17.5767 17.0867 17.64 17.35 17.64 17.63C17.64 17.9833 17.55 18.3033 17.37 18.59C17.19 18.87 16.9267 19.0933 16.58 19.26C16.24 19.42 15.8367 19.5 15.37 19.5H12.77V12.53H15.27C15.7433 12.53 16.1467 12.61 16.48 12.77C16.8133 12.9233 17.0633 13.1333 17.23 13.4C17.3967 13.6667 17.48 13.9667 17.48 14.3C17.48 14.7133 17.3667 15.0567 17.14 15.33C16.92 15.5967 16.6267 15.79 16.26 15.91ZM13.68 15.54H15.21C15.6367 15.54 15.9667 15.44 16.2 15.24C16.4333 15.04 16.55 14.7633 16.55 14.41C16.55 14.0567 16.4333 13.78 16.2 13.58C15.9667 13.38 15.63 13.28 15.19 13.28H13.68V15.54ZM15.29 18.75C15.7433 18.75 16.0967 18.6433 16.35 18.43C16.6033 18.2167 16.73 17.92 16.73 17.54C16.73 17.1533 16.5967 16.85 16.33 16.63C16.0633 16.4033 15.7067 16.29 15.26 16.29H13.68V18.75H15.29ZM19.3728 13.13C19.1995 13.13 19.0528 13.07 18.9328 12.95C18.8128 12.83 18.7528 12.6833 18.7528 12.51C18.7528 12.3367 18.8128 12.19 18.9328 12.07C19.0528 11.95 19.1995 11.89 19.3728 11.89C19.5395 11.89 19.6795 11.95 19.7928 12.07C19.9128 12.19 19.9728 12.3367 19.9728 12.51C19.9728 12.6833 19.9128 12.83 19.7928 12.95C19.6795 13.07 19.5395 13.13 19.3728 13.13ZM19.8128 14.02V19.5H18.9028V14.02H19.8128ZM24.0338 13.92C24.7004 13.92 25.2404 14.1233 25.6538 14.53C26.0671 14.93 26.2738 15.51 26.2738 16.27V19.5H25.3738V16.4C25.3738 15.8533 25.2371 15.4367 24.9638 15.15C24.6904 14.8567 24.3171 14.71 23.8438 14.71C23.3638 14.71 22.9804 14.86 22.6938 15.16C22.4138 15.46 22.2738 15.8967 22.2738 16.47V19.5H21.3638V14.02H22.2738V14.8C22.4538 14.52 22.6971 14.3033 23.0038 14.15C23.3171 13.9967 23.6604 13.92 24.0338 13.92ZM27.4202 16.74C27.4202 16.18 27.5336 15.69 27.7602 15.27C27.9869 14.8433 28.2969 14.5133 28.6902 14.28C29.0902 14.0467 29.5369 13.93 30.0302 13.93C30.4569 13.93 30.8536 14.03 31.2202 14.23C31.5869 14.4233 31.8669 14.68 32.0602 15V12.1H32.9802V19.5H32.0602V18.47C31.8802 18.7967 31.6136 19.0667 31.2602 19.28C30.9069 19.4867 30.4936 19.59 30.0202 19.59C29.5336 19.59 29.0902 19.47 28.6902 19.23C28.2969 18.99 27.9869 18.6533 27.7602 18.22C27.5336 17.7867 27.4202 17.2933 27.4202 16.74ZM32.0602 16.75C32.0602 16.3367 31.9769 15.9767 31.8102 15.67C31.6436 15.3633 31.4169 15.13 31.1302 14.97C30.8502 14.8033 30.5402 14.72 30.2002 14.72C29.8602 14.72 29.5502 14.8 29.2702 14.96C28.9902 15.12 28.7669 15.3533 28.6002 15.66C28.4336 15.9667 28.3502 16.3267 28.3502 16.74C28.3502 17.16 28.4336 17.5267 28.6002 17.84C28.7669 18.1467 28.9902 18.3833 29.2702 18.55C29.5502 18.71 29.8602 18.79 30.2002 18.79C30.5402 18.79 30.8502 18.71 31.1302 18.55C31.4169 18.3833 31.6436 18.1467 31.8102 17.84C31.9769 17.5267 32.0602 17.1633 32.0602 16.75ZM34.988 13.13C34.8147 13.13 34.668 13.07 34.548 12.95C34.428 12.83 34.368 12.6833 34.368 12.51C34.368 12.3367 34.428 12.19 34.548 12.07C34.668 11.95 34.8147 11.89 34.988 11.89C35.1547 11.89 35.2947 11.95 35.408 12.07C35.528 12.19 35.588 12.3367 35.588 12.51C35.588 12.6833 35.528 12.83 35.408 12.95C35.2947 13.07 35.1547 13.13 34.988 13.13ZM35.428 14.02V19.5H34.518V14.02H35.428ZM39.649 13.92C40.3157 13.92 40.8557 14.1233 41.269 14.53C41.6823 14.93 41.889 15.51 41.889 16.27V19.5H40.989V16.4C40.989 15.8533 40.8523 15.4367 40.579 15.15C40.3057 14.8567 39.9323 14.71 39.459 14.71C38.979 14.71 38.5957 14.86 38.309 15.16C38.029 15.46 37.889 15.8967 37.889 16.47V19.5H36.979V14.02H37.889V14.8C38.069 14.52 38.3123 14.3033 38.619 14.15C38.9323 13.9967 39.2757 13.92 39.649 13.92ZM45.6355 13.93C46.1088 13.93 46.5221 14.0333 46.8755 14.24C47.2355 14.4467 47.5021 14.7067 47.6755 15.02V14.02H48.5955V19.62C48.5955 20.12 48.4888 20.5633 48.2755 20.95C48.0621 21.3433 47.7555 21.65 47.3555 21.87C46.9621 22.09 46.5021 22.2 45.9755 22.2C45.2555 22.2 44.6555 22.03 44.1755 21.69C43.6955 21.35 43.4121 20.8867 43.3255 20.3H44.2255C44.3255 20.6333 44.5321 20.9 44.8455 21.1C45.1588 21.3067 45.5355 21.41 45.9755 21.41C46.4755 21.41 46.8821 21.2533 47.1955 20.94C47.5155 20.6267 47.6755 20.1867 47.6755 19.62V18.47C47.4955 18.79 47.2288 19.0567 46.8755 19.27C46.5221 19.4833 46.1088 19.59 45.6355 19.59C45.1488 19.59 44.7055 19.47 44.3055 19.23C43.9121 18.99 43.6021 18.6533 43.3755 18.22C43.1488 17.7867 43.0355 17.2933 43.0355 16.74C43.0355 16.18 43.1488 15.69 43.3755 15.27C43.6021 14.8433 43.9121 14.5133 44.3055 14.28C44.7055 14.0467 45.1488 13.93 45.6355 13.93ZM47.6755 16.75C47.6755 16.3367 47.5921 15.9767 47.4255 15.67C47.2588 15.3633 47.0321 15.13 46.7455 14.97C46.4655 14.8033 46.1555 14.72 45.8155 14.72C45.4755 14.72 45.1655 14.8 44.8855 14.96C44.6055 15.12 44.3821 15.3533 44.2155 15.66C44.0488 15.9667 43.9655 16.3267 43.9655 16.74C43.9655 17.16 44.0488 17.5267 44.2155 17.84C44.3821 18.1467 44.6055 18.3833 44.8855 18.55C45.1655 18.71 45.4755 18.79 45.8155 18.79C46.1555 18.79 46.4655 18.71 46.7455 18.55C47.0321 18.3833 47.2588 18.1467 47.4255 17.84C47.5921 17.5267 47.6755 17.1633 47.6755 16.75Z" fill="#808080"/>
<path d="M15.648 34.584C15.088 34.584 14.584 34.488 14.136 34.296C13.688 34.096 13.336 33.816 13.08 33.456C12.824 33.096 12.696 32.676 12.696 32.196H14.16C14.192 32.556 14.332 32.852 14.58 33.084C14.836 33.316 15.192 33.432 15.648 33.432C16.12 33.432 16.488 33.32 16.752 33.096C17.016 32.864 17.148 32.568 17.148 32.208C17.148 31.928 17.064 31.7 16.896 31.524C16.736 31.348 16.532 31.212 16.284 31.116C16.044 31.02 15.708 30.916 15.276 30.804C14.732 30.66 14.288 30.516 13.944 30.372C13.608 30.22 13.32 29.988 13.08 29.676C12.84 29.364 12.72 28.948 12.72 28.428C12.72 27.948 12.84 27.528 13.08 27.168C13.32 26.808 13.656 26.532 14.088 26.34C14.52 26.148 15.02 26.052 15.588 26.052C16.396 26.052 17.056 26.256 17.568 26.664C18.088 27.064 18.376 27.616 18.432 28.32H16.92C16.896 28.016 16.752 27.756 16.488 27.54C16.224 27.324 15.876 27.216 15.444 27.216C15.052 27.216 14.732 27.316 14.484 27.516C14.236 27.716 14.112 28.004 14.112 28.38C14.112 28.636 14.188 28.848 14.34 29.016C14.5 29.176 14.7 29.304 14.94 29.4C15.18 29.496 15.508 29.6 15.924 29.712C16.476 29.864 16.924 30.016 17.268 30.168C17.62 30.32 17.916 30.556 18.156 30.876C18.404 31.188 18.528 31.608 18.528 32.136C18.528 32.56 18.412 32.96 18.18 33.336C17.956 33.712 17.624 34.016 17.184 34.248C16.752 34.472 16.24 34.584 15.648 34.584ZM26.2022 31.032C26.2022 31.28 26.1862 31.504 26.1542 31.704H21.1022C21.1422 32.232 21.3382 32.656 21.6902 32.976C22.0422 33.296 22.4742 33.456 22.9862 33.456C23.7222 33.456 24.2422 33.148 24.5462 32.532H26.0222C25.8222 33.14 25.4582 33.64 24.9302 34.032C24.4102 34.416 23.7622 34.608 22.9862 34.608C22.3542 34.608 21.7862 34.468 21.2822 34.188C20.7862 33.9 20.3942 33.5 20.1062 32.988C19.8262 32.468 19.6862 31.868 19.6862 31.188C19.6862 30.508 19.8222 29.912 20.0942 29.4C20.3742 28.88 20.7622 28.48 21.2582 28.2C21.7622 27.92 22.3382 27.78 22.9862 27.78C23.6102 27.78 24.1662 27.916 24.6542 28.188C25.1422 28.46 25.5222 28.844 25.7942 29.34C26.0662 29.828 26.2022 30.392 26.2022 31.032ZM24.7742 30.6C24.7662 30.096 24.5862 29.692 24.2342 29.388C23.8822 29.084 23.4462 28.932 22.9262 28.932C22.4542 28.932 22.0502 29.084 21.7142 29.388C21.3782 29.684 21.1782 30.088 21.1142 30.6H24.7742ZM30.8844 27.78C31.4044 27.78 31.8684 27.888 32.2764 28.104C32.6924 28.32 33.0164 28.64 33.2484 29.064C33.4804 29.488 33.5964 30 33.5964 30.6V34.5H32.2404V30.804C32.2404 30.212 32.0924 29.76 31.7964 29.448C31.5004 29.128 31.0964 28.968 30.5844 28.968C30.0724 28.968 29.6644 29.128 29.3604 29.448C29.0644 29.76 28.9164 30.212 28.9164 30.804V34.5H27.5484V27.888H28.9164V28.644C29.1404 28.372 29.4244 28.16 29.7684 28.008C30.1204 27.856 30.4924 27.78 30.8844 27.78ZM36.9374 29.004V32.664C36.9374 32.912 36.9934 33.092 37.1054 33.204C37.2254 33.308 37.4254 33.36 37.7054 33.36H38.5454V34.5H37.4654C36.8494 34.5 36.3774 34.356 36.0494 34.068C35.7214 33.78 35.5574 33.312 35.5574 32.664V29.004H34.7774V27.888H35.5574V26.244H36.9374V27.888H38.5454V29.004H36.9374Z" fill="#1A1A1A"/>
<path fill-rule="evenodd" clip-rule="evenodd" d="M102 23C104.761 23 107 20.7614 107 18C107 15.2386 104.761 13 102 13C99.2386 13 97 15.2386 97 18C97 20.7614 99.2386 23 102 23ZM102 17.25H99V18.75H102V21L105 18L102 15V17.25Z" fill="#177EE5"/>
<path d="M106.028 23.7254C104.889 24.5284 103.5 25 102 25C98.134 25 95 21.866 95 18C95 16.5147 95.4626 15.1374 96.2516 14.0044C96.1681 14.0015 96.0842 14 96 14C92.134 14 89 17.134 89 21C89 21.1135 89.0027 21.2264 89.008 21.3386C86.6735 22.16 85 24.3846 85 27C85 30.3137 87.6863 33 91 33H101C104.314 33 107 30.3137 107 27C107 25.7918 106.643 24.667 106.028 23.7254Z" fill="#177EE5"/>
</svg>
