<svg width="120" height="48" viewBox="0 0 120 48" fill="none" xmlns="http://www.w3.org/2000/svg">
<rect width="120" height="48" rx="10" fill="black" fill-opacity="0.08"/>
<path d="M18.25 19.5H17.34L13.68 13.95V19.5H12.77V12.52H13.68L17.34 18.06V12.52H18.25V19.5ZM24.8013 16.55C24.8013 16.7233 24.7913 16.9067 24.7713 17.1H20.3913C20.4246 17.64 20.6079 18.0633 20.9413 18.37C21.2813 18.67 21.6913 18.82 22.1713 18.82C22.5646 18.82 22.8913 18.73 23.1513 18.55C23.4179 18.3633 23.6046 18.1167 23.7113 17.81H24.6913C24.5446 18.3367 24.2513 18.7667 23.8113 19.1C23.3713 19.4267 22.8246 19.59 22.1713 19.59C21.6513 19.59 21.1846 19.4733 20.7713 19.24C20.3646 19.0067 20.0446 18.6767 19.8113 18.25C19.5779 17.8167 19.4613 17.3167 19.4613 16.75C19.4613 16.1833 19.5746 15.6867 19.8013 15.26C20.0279 14.8333 20.3446 14.5067 20.7513 14.28C21.1646 14.0467 21.6379 13.93 22.1713 13.93C22.6913 13.93 23.1513 14.0433 23.5513 14.27C23.9513 14.4967 24.2579 14.81 24.4713 15.21C24.6913 15.6033 24.8013 16.05 24.8013 16.55ZM23.8613 16.36C23.8613 16.0133 23.7846 15.7167 23.6313 15.47C23.4779 15.2167 23.2679 15.0267 23.0013 14.9C22.7413 14.7667 22.4513 14.7 22.1313 14.7C21.6713 14.7 21.2779 14.8467 20.9513 15.14C20.6313 15.4333 20.4479 15.84 20.4013 16.36H23.8613ZM27.1124 14.77V18C27.1124 18.2667 27.1691 18.4567 27.2824 18.57C27.3958 18.6767 27.5924 18.73 27.8724 18.73H28.5424V19.5H27.7224C27.2158 19.5 26.8358 19.3833 26.5824 19.15C26.3291 18.9167 26.2024 18.5333 26.2024 18V14.77H25.4924V14.02H26.2024V12.64H27.1124V14.02H28.5424V14.77H27.1124ZM36.945 14.02L35.235 19.5H34.295L32.975 15.15L31.655 19.5H30.715L28.995 14.02H29.925L31.185 18.62L32.545 14.02H33.475L34.805 18.63L36.045 14.02H36.945ZM40.2381 19.59C39.7248 19.59 39.2581 19.4733 38.8381 19.24C38.4248 19.0067 38.0981 18.6767 37.8581 18.25C37.6248 17.8167 37.5081 17.3167 37.5081 16.75C37.5081 16.19 37.6281 15.6967 37.8681 15.27C38.1148 14.8367 38.4481 14.5067 38.8681 14.28C39.2881 14.0467 39.7581 13.93 40.2781 13.93C40.7981 13.93 41.2681 14.0467 41.6881 14.28C42.1081 14.5067 42.4381 14.8333 42.6781 15.26C42.9248 15.6867 43.0481 16.1833 43.0481 16.75C43.0481 17.3167 42.9215 17.8167 42.6681 18.25C42.4215 18.6767 42.0848 19.0067 41.6581 19.24C41.2315 19.4733 40.7581 19.59 40.2381 19.59ZM40.2381 18.79C40.5648 18.79 40.8715 18.7133 41.1581 18.56C41.4448 18.4067 41.6748 18.1767 41.8481 17.87C42.0281 17.5633 42.1181 17.19 42.1181 16.75C42.1181 16.31 42.0315 15.9367 41.8581 15.63C41.6848 15.3233 41.4581 15.0967 41.1781 14.95C40.8981 14.7967 40.5948 14.72 40.2681 14.72C39.9348 14.72 39.6281 14.7967 39.3481 14.95C39.0748 15.0967 38.8548 15.3233 38.6881 15.63C38.5215 15.9367 38.4381 16.31 38.4381 16.75C38.4381 17.1967 38.5181 17.5733 38.6781 17.88C38.8448 18.1867 39.0648 18.4167 39.3381 18.57C39.6115 18.7167 39.9115 18.79 40.2381 18.79ZM45.1546 14.91C45.3146 14.5967 45.5413 14.3533 45.8346 14.18C46.1346 14.0067 46.4979 13.92 46.9246 13.92V14.86H46.6846C45.6646 14.86 45.1546 15.4133 45.1546 16.52V19.5H44.2446V14.02H45.1546V14.91ZM51.0351 19.5L48.8851 17.08V19.5H47.9751V12.1H48.8851V16.45L50.9951 14.02H52.2651L49.6851 16.75L52.2751 19.5H51.0351Z" fill="#808080"/>
<path d="M17.976 29.58V30.732H13.044V29.58H17.976Z" fill="#1A1A1A"/>
<path d="M105 15H102V32H105V15Z" fill="#B3B3B3"/>
<path d="M97 19H100V32H97V19Z" fill="#B3B3B3"/>
<path d="M95 23H92V32H95V23Z" fill="#B3B3B3"/>
<path d="M90 27H87V32H90V27Z" fill="#B3B3B3"/>
</svg>
