<svg width="120" height="48" viewBox="0 0 120 48" fill="none" xmlns="http://www.w3.org/2000/svg">
<rect width="120" height="48" rx="10" fill="#46BEAB" fill-opacity="0.15"/>
<path d="M18.25 19.5H17.34L13.68 13.95V19.5H12.77V12.52H13.68L17.34 18.06V12.52H18.25V19.5ZM24.8013 16.55C24.8013 16.7233 24.7913 16.9067 24.7713 17.1H20.3913C20.4246 17.64 20.6079 18.0633 20.9413 18.37C21.2813 18.67 21.6913 18.82 22.1713 18.82C22.5646 18.82 22.8913 18.73 23.1513 18.55C23.4179 18.3633 23.6046 18.1167 23.7113 17.81H24.6913C24.5446 18.3367 24.2513 18.7667 23.8113 19.1C23.3713 19.4267 22.8246 19.59 22.1713 19.59C21.6513 19.59 21.1846 19.4733 20.7713 19.24C20.3646 19.0067 20.0446 18.6767 19.8113 18.25C19.5779 17.8167 19.4613 17.3167 19.4613 16.75C19.4613 16.1833 19.5746 15.6867 19.8013 15.26C20.0279 14.8333 20.3446 14.5067 20.7513 14.28C21.1646 14.0467 21.6379 13.93 22.1713 13.93C22.6913 13.93 23.1513 14.0433 23.5513 14.27C23.9513 14.4967 24.2579 14.81 24.4713 15.21C24.6913 15.6033 24.8013 16.05 24.8013 16.55ZM23.8613 16.36C23.8613 16.0133 23.7846 15.7167 23.6313 15.47C23.4779 15.2167 23.2679 15.0267 23.0013 14.9C22.7413 14.7667 22.4513 14.7 22.1313 14.7C21.6713 14.7 21.2779 14.8467 20.9513 15.14C20.6313 15.4333 20.4479 15.84 20.4013 16.36H23.8613ZM27.1124 14.77V18C27.1124 18.2667 27.1691 18.4567 27.2824 18.57C27.3958 18.6767 27.5924 18.73 27.8724 18.73H28.5424V19.5H27.7224C27.2158 19.5 26.8358 19.3833 26.5824 19.15C26.3291 18.9167 26.2024 18.5333 26.2024 18V14.77H25.4924V14.02H26.2024V12.64H27.1124V14.02H28.5424V14.77H27.1124ZM36.945 14.02L35.235 19.5H34.295L32.975 15.15L31.655 19.5H30.715L28.995 14.02H29.925L31.185 18.62L32.545 14.02H33.475L34.805 18.63L36.045 14.02H36.945ZM40.2381 19.59C39.7248 19.59 39.2581 19.4733 38.8381 19.24C38.4248 19.0067 38.0981 18.6767 37.8581 18.25C37.6248 17.8167 37.5081 17.3167 37.5081 16.75C37.5081 16.19 37.6281 15.6967 37.8681 15.27C38.1148 14.8367 38.4481 14.5067 38.8681 14.28C39.2881 14.0467 39.7581 13.93 40.2781 13.93C40.7981 13.93 41.2681 14.0467 41.6881 14.28C42.1081 14.5067 42.4381 14.8333 42.6781 15.26C42.9248 15.6867 43.0481 16.1833 43.0481 16.75C43.0481 17.3167 42.9215 17.8167 42.6681 18.25C42.4215 18.6767 42.0848 19.0067 41.6581 19.24C41.2315 19.4733 40.7581 19.59 40.2381 19.59ZM40.2381 18.79C40.5648 18.79 40.8715 18.7133 41.1581 18.56C41.4448 18.4067 41.6748 18.1767 41.8481 17.87C42.0281 17.5633 42.1181 17.19 42.1181 16.75C42.1181 16.31 42.0315 15.9367 41.8581 15.63C41.6848 15.3233 41.4581 15.0967 41.1781 14.95C40.8981 14.7967 40.5948 14.72 40.2681 14.72C39.9348 14.72 39.6281 14.7967 39.3481 14.95C39.0748 15.0967 38.8548 15.3233 38.6881 15.63C38.5215 15.9367 38.4381 16.31 38.4381 16.75C38.4381 17.1967 38.5181 17.5733 38.6781 17.88C38.8448 18.1867 39.0648 18.4167 39.3381 18.57C39.6115 18.7167 39.9115 18.79 40.2381 18.79ZM45.1546 14.91C45.3146 14.5967 45.5413 14.3533 45.8346 14.18C46.1346 14.0067 46.4979 13.92 46.9246 13.92V14.86H46.6846C45.6646 14.86 45.1546 15.4133 45.1546 16.52V19.5H44.2446V14.02H45.1546V14.91ZM51.0351 19.5L48.8851 17.08V19.5H47.9751V12.1H48.8851V16.45L50.9951 14.02H52.2651L49.6851 16.75L52.2751 19.5H51.0351Z" fill="#808080"/>
<path d="M19.752 34.5H18.384L14.268 28.272V34.5H12.9V26.148H14.268L18.384 32.364V26.148H19.752V34.5ZM24.4164 34.608C23.7924 34.608 23.2284 34.468 22.7244 34.188C22.2204 33.9 21.8244 33.5 21.5364 32.988C21.2484 32.468 21.1044 31.868 21.1044 31.188C21.1044 30.516 21.2524 29.92 21.5484 29.4C21.8444 28.88 22.2484 28.48 22.7604 28.2C23.2724 27.92 23.8444 27.78 24.4764 27.78C25.1084 27.78 25.6804 27.92 26.1924 28.2C26.7044 28.48 27.1084 28.88 27.4044 29.4C27.7004 29.92 27.8484 30.516 27.8484 31.188C27.8484 31.86 27.6964 32.456 27.3924 32.976C27.0884 33.496 26.6724 33.9 26.1444 34.188C25.6244 34.468 25.0484 34.608 24.4164 34.608ZM24.4164 33.42C24.7684 33.42 25.0964 33.336 25.4004 33.168C25.7124 33 25.9644 32.748 26.1564 32.412C26.3484 32.076 26.4444 31.668 26.4444 31.188C26.4444 30.708 26.3524 30.304 26.1684 29.976C25.9844 29.64 25.7404 29.388 25.4364 29.22C25.1324 29.052 24.8044 28.968 24.4524 28.968C24.1004 28.968 23.7724 29.052 23.4684 29.22C23.1724 29.388 22.9364 29.64 22.7604 29.976C22.5844 30.304 22.4964 30.708 22.4964 31.188C22.4964 31.9 22.6764 32.452 23.0364 32.844C23.4044 33.228 23.8644 33.42 24.4164 33.42ZM30.5688 28.848C30.7688 28.512 31.0328 28.252 31.3608 28.068C31.6968 27.876 32.0928 27.78 32.5488 27.78V29.196H32.2008C31.6648 29.196 31.2568 29.332 30.9768 29.604C30.7048 29.876 30.5688 30.348 30.5688 31.02V34.5H29.2008V27.888H30.5688V28.848ZM41.8103 27.78C42.3303 27.78 42.7943 27.888 43.2023 28.104C43.6183 28.32 43.9423 28.64 44.1743 29.064C44.4143 29.488 44.5343 30 44.5343 30.6V34.5H43.1783V30.804C43.1783 30.212 43.0303 29.76 42.7343 29.448C42.4383 29.128 42.0343 28.968 41.5223 28.968C41.0103 28.968 40.6023 29.128 40.2983 29.448C40.0023 29.76 39.8543 30.212 39.8543 30.804V34.5H38.4983V30.804C38.4983 30.212 38.3503 29.76 38.0543 29.448C37.7583 29.128 37.3543 28.968 36.8423 28.968C36.3303 28.968 35.9223 29.128 35.6183 29.448C35.3223 29.76 35.1743 30.212 35.1743 30.804V34.5H33.8063V27.888H35.1743V28.644C35.3983 28.372 35.6823 28.16 36.0263 28.008C36.3703 27.856 36.7383 27.78 37.1303 27.78C37.6583 27.78 38.1303 27.892 38.5463 28.116C38.9623 28.34 39.2823 28.664 39.5063 29.088C39.7063 28.688 40.0183 28.372 40.4423 28.14C40.8663 27.9 41.3223 27.78 41.8103 27.78ZM45.819 31.164C45.819 30.5 45.955 29.912 46.227 29.4C46.507 28.888 46.883 28.492 47.355 28.212C47.835 27.924 48.363 27.78 48.939 27.78C49.459 27.78 49.911 27.884 50.295 28.092C50.687 28.292 50.999 28.544 51.231 28.848V27.888H52.611V34.5H51.231V33.516C50.999 33.828 50.683 34.088 50.283 34.296C49.883 34.504 49.427 34.608 48.915 34.608C48.347 34.608 47.827 34.464 47.355 34.176C46.883 33.88 46.507 33.472 46.227 32.952C45.955 32.424 45.819 31.828 45.819 31.164ZM51.231 31.188C51.231 30.732 51.135 30.336 50.943 30C50.759 29.664 50.515 29.408 50.211 29.232C49.907 29.056 49.579 28.968 49.227 28.968C48.875 28.968 48.547 29.056 48.243 29.232C47.939 29.4 47.691 29.652 47.499 29.988C47.315 30.316 47.223 30.708 47.223 31.164C47.223 31.62 47.315 32.02 47.499 32.364C47.691 32.708 47.939 32.972 48.243 33.156C48.555 33.332 48.883 33.42 49.227 33.42C49.579 33.42 49.907 33.332 50.211 33.156C50.515 32.98 50.759 32.724 50.943 32.388C51.135 32.044 51.231 31.644 51.231 31.188ZM55.7758 25.62V34.5H54.4078V25.62H55.7758Z" fill="#1A1A1A"/>
<path d="M105 15H102V32H105V15Z" fill="#00A79D"/>
<path d="M97 19H100V32H97V19Z" fill="#00A79D"/>
<path d="M95 23H92V32H95V23Z" fill="#00A79D"/>
<path d="M90 27H87V32H90V27Z" fill="#00A79D"/>
<path d="M89.0024 22.9999L96.0735 15.9289L94.6593 14.5146L89.0024 20.1715L86.174 17.343L84.7598 18.7573L89.0024 22.9999Z" fill="#00A79D"/>
</svg>
