<svg width="120" height="48" viewBox="0 0 120 48" fill="none" xmlns="http://www.w3.org/2000/svg">
<rect width="120" height="48" rx="10" fill="#FF8000" fill-opacity="0.15"/>
<path d="M18.25 19.5H17.34L13.68 13.95V19.5H12.77V12.52H13.68L17.34 18.06V12.52H18.25V19.5ZM24.8013 16.55C24.8013 16.7233 24.7913 16.9067 24.7713 17.1H20.3913C20.4246 17.64 20.6079 18.0633 20.9413 18.37C21.2813 18.67 21.6913 18.82 22.1713 18.82C22.5646 18.82 22.8913 18.73 23.1513 18.55C23.4179 18.3633 23.6046 18.1167 23.7113 17.81H24.6913C24.5446 18.3367 24.2513 18.7667 23.8113 19.1C23.3713 19.4267 22.8246 19.59 22.1713 19.59C21.6513 19.59 21.1846 19.4733 20.7713 19.24C20.3646 19.0067 20.0446 18.6767 19.8113 18.25C19.5779 17.8167 19.4613 17.3167 19.4613 16.75C19.4613 16.1833 19.5746 15.6867 19.8013 15.26C20.0279 14.8333 20.3446 14.5067 20.7513 14.28C21.1646 14.0467 21.6379 13.93 22.1713 13.93C22.6913 13.93 23.1513 14.0433 23.5513 14.27C23.9513 14.4967 24.2579 14.81 24.4713 15.21C24.6913 15.6033 24.8013 16.05 24.8013 16.55ZM23.8613 16.36C23.8613 16.0133 23.7846 15.7167 23.6313 15.47C23.4779 15.2167 23.2679 15.0267 23.0013 14.9C22.7413 14.7667 22.4513 14.7 22.1313 14.7C21.6713 14.7 21.2779 14.8467 20.9513 15.14C20.6313 15.4333 20.4479 15.84 20.4013 16.36H23.8613ZM27.1124 14.77V18C27.1124 18.2667 27.1691 18.4567 27.2824 18.57C27.3958 18.6767 27.5924 18.73 27.8724 18.73H28.5424V19.5H27.7224C27.2158 19.5 26.8358 19.3833 26.5824 19.15C26.3291 18.9167 26.2024 18.5333 26.2024 18V14.77H25.4924V14.02H26.2024V12.64H27.1124V14.02H28.5424V14.77H27.1124ZM36.945 14.02L35.235 19.5H34.295L32.975 15.15L31.655 19.5H30.715L28.995 14.02H29.925L31.185 18.62L32.545 14.02H33.475L34.805 18.63L36.045 14.02H36.945ZM40.2381 19.59C39.7248 19.59 39.2581 19.4733 38.8381 19.24C38.4248 19.0067 38.0981 18.6767 37.8581 18.25C37.6248 17.8167 37.5081 17.3167 37.5081 16.75C37.5081 16.19 37.6281 15.6967 37.8681 15.27C38.1148 14.8367 38.4481 14.5067 38.8681 14.28C39.2881 14.0467 39.7581 13.93 40.2781 13.93C40.7981 13.93 41.2681 14.0467 41.6881 14.28C42.1081 14.5067 42.4381 14.8333 42.6781 15.26C42.9248 15.6867 43.0481 16.1833 43.0481 16.75C43.0481 17.3167 42.9215 17.8167 42.6681 18.25C42.4215 18.6767 42.0848 19.0067 41.6581 19.24C41.2315 19.4733 40.7581 19.59 40.2381 19.59ZM40.2381 18.79C40.5648 18.79 40.8715 18.7133 41.1581 18.56C41.4448 18.4067 41.6748 18.1767 41.8481 17.87C42.0281 17.5633 42.1181 17.19 42.1181 16.75C42.1181 16.31 42.0315 15.9367 41.8581 15.63C41.6848 15.3233 41.4581 15.0967 41.1781 14.95C40.8981 14.7967 40.5948 14.72 40.2681 14.72C39.9348 14.72 39.6281 14.7967 39.3481 14.95C39.0748 15.0967 38.8548 15.3233 38.6881 15.63C38.5215 15.9367 38.4381 16.31 38.4381 16.75C38.4381 17.1967 38.5181 17.5733 38.6781 17.88C38.8448 18.1867 39.0648 18.4167 39.3381 18.57C39.6115 18.7167 39.9115 18.79 40.2381 18.79ZM45.1546 14.91C45.3146 14.5967 45.5413 14.3533 45.8346 14.18C46.1346 14.0067 46.4979 13.92 46.9246 13.92V14.86H46.6846C45.6646 14.86 45.1546 15.4133 45.1546 16.52V19.5H44.2446V14.02H45.1546V14.91ZM51.0351 19.5L48.8851 17.08V19.5H47.9751V12.1H48.8851V16.45L50.9951 14.02H52.2651L49.6851 16.75L52.2751 19.5H51.0351Z" fill="#808080"/>
<path d="M17.928 32.796H14.436L13.836 34.5H12.408L15.396 26.148H16.98L19.968 34.5H18.528L17.928 32.796ZM17.544 31.68L16.188 27.804L14.82 31.68H17.544ZM22.6352 25.62V34.5H21.2672V25.62H22.6352ZM30.4913 31.032C30.4913 31.28 30.4753 31.504 30.4433 31.704H25.3913C25.4313 32.232 25.6273 32.656 25.9793 32.976C26.3313 33.296 26.7633 33.456 27.2753 33.456C28.0113 33.456 28.5313 33.148 28.8353 32.532H30.3112C30.1113 33.14 29.7473 33.64 29.2193 34.032C28.6993 34.416 28.0513 34.608 27.2753 34.608C26.6433 34.608 26.0753 34.468 25.5713 34.188C25.0753 33.9 24.6833 33.5 24.3953 32.988C24.1153 32.468 23.9753 31.868 23.9753 31.188C23.9753 30.508 24.1113 29.912 24.3833 29.4C24.6633 28.88 25.0513 28.48 25.5473 28.2C26.0513 27.92 26.6273 27.78 27.2753 27.78C27.8993 27.78 28.4553 27.916 28.9433 28.188C29.4313 28.46 29.8113 28.844 30.0833 29.34C30.3553 29.828 30.4913 30.392 30.4913 31.032ZM29.0633 30.6C29.0553 30.096 28.8753 29.692 28.5233 29.388C28.1713 29.084 27.7353 28.932 27.2153 28.932C26.7433 28.932 26.3393 29.084 26.0033 29.388C25.6673 29.684 25.4673 30.088 25.4033 30.6H29.0633ZM33.2055 28.848C33.4055 28.512 33.6695 28.252 33.9975 28.068C34.3335 27.876 34.7295 27.78 35.1855 27.78V29.196H34.8375C34.3015 29.196 33.8935 29.332 33.6135 29.604C33.3415 29.876 33.2055 30.348 33.2055 31.02V34.5H31.8375V27.888H33.2055V28.848ZM38.039 29.004V32.664C38.039 32.912 38.095 33.092 38.207 33.204C38.327 33.308 38.527 33.36 38.807 33.36H39.647V34.5H38.567C37.951 34.5 37.479 34.356 37.151 34.068C36.823 33.78 36.659 33.312 36.659 32.664V29.004H35.879V27.888H36.659V26.244H38.039V27.888H39.647V29.004H38.039Z" fill="#1A1A1A"/>
<path d="M105 15H102V32H105V15Z" fill="#FF8000"/>
<path d="M97 19H100V32H97V19Z" fill="#FF8000"/>
<path d="M95 23H92V32H95V23Z" fill="#FF8000"/>
<path d="M90 27H87V32H90V27Z" fill="#FF8000"/>
<path d="M87.5 25V23H89.5V25H87.5Z" fill="#FF8000"/>
<path d="M87.5 21V15H89.5V21H87.5Z" fill="#FF8000"/>
</svg>
