<svg width="120" height="48" viewBox="0 0 120 48" fill="none" xmlns="http://www.w3.org/2000/svg">
<rect width="120" height="48" rx="10" fill="#FF8000" fill-opacity="0.15"/>
<path d="M14.98 19.57C14.52 19.57 14.1067 19.49 13.74 19.33C13.38 19.1633 13.0967 18.9367 12.89 18.65C12.6833 18.3567 12.5767 18.02 12.57 17.64H13.54C13.5733 17.9667 13.7067 18.2433 13.94 18.47C14.18 18.69 14.5267 18.8 14.98 18.8C15.4133 18.8 15.7533 18.6933 16 18.48C16.2533 18.26 16.38 17.98 16.38 17.64C16.38 17.3733 16.3067 17.1567 16.16 16.99C16.0133 16.8233 15.83 16.6967 15.61 16.61C15.39 16.5233 15.0933 16.43 14.72 16.33C14.26 16.21 13.89 16.09 13.61 15.97C13.3367 15.85 13.1 15.6633 12.9 15.41C12.7067 15.15 12.61 14.8033 12.61 14.37C12.61 13.99 12.7067 13.6533 12.9 13.36C13.0933 13.0667 13.3633 12.84 13.71 12.68C14.0633 12.52 14.4667 12.44 14.92 12.44C15.5733 12.44 16.1067 12.6033 16.52 12.93C16.94 13.2567 17.1767 13.69 17.23 14.23H16.23C16.1967 13.9633 16.0567 13.73 15.81 13.53C15.5633 13.3233 15.2367 13.22 14.83 13.22C14.45 13.22 14.14 13.32 13.9 13.52C13.66 13.7133 13.54 13.9867 13.54 14.34C13.54 14.5933 13.61 14.8 13.75 14.96C13.8967 15.12 14.0733 15.2433 14.28 15.33C14.4933 15.41 14.79 15.5033 15.17 15.61C15.63 15.7367 16 15.8633 16.28 15.99C16.56 16.11 16.8 16.3 17 16.56C17.2 16.8133 17.3 17.16 17.3 17.6C17.3 17.94 17.21 18.26 17.03 18.56C16.85 18.86 16.5833 19.1033 16.23 19.29C15.8767 19.4767 15.46 19.57 14.98 19.57ZM25.7091 12.58V19.5H24.7991V14.34L22.4991 19.5H21.8591L19.5491 14.33V19.5H18.6391V12.58H19.6191L22.1791 18.3L24.7391 12.58H25.7091ZM29.4624 19.57C29.0024 19.57 28.5891 19.49 28.2224 19.33C27.8624 19.1633 27.5791 18.9367 27.3724 18.65C27.1658 18.3567 27.0591 18.02 27.0524 17.64H28.0224C28.0558 17.9667 28.1891 18.2433 28.4224 18.47C28.6624 18.69 29.0091 18.8 29.4624 18.8C29.8958 18.8 30.2358 18.6933 30.4824 18.48C30.7358 18.26 30.8624 17.98 30.8624 17.64C30.8624 17.3733 30.7891 17.1567 30.6424 16.99C30.4958 16.8233 30.3124 16.6967 30.0924 16.61C29.8724 16.5233 29.5758 16.43 29.2024 16.33C28.7424 16.21 28.3724 16.09 28.0924 15.97C27.8191 15.85 27.5824 15.6633 27.3824 15.41C27.1891 15.15 27.0924 14.8033 27.0924 14.37C27.0924 13.99 27.1891 13.6533 27.3824 13.36C27.5758 13.0667 27.8458 12.84 28.1924 12.68C28.5458 12.52 28.9491 12.44 29.4024 12.44C30.0558 12.44 30.5891 12.6033 31.0024 12.93C31.4224 13.2567 31.6591 13.69 31.7124 14.23H30.7124C30.6791 13.9633 30.5391 13.73 30.2924 13.53C30.0458 13.3233 29.7191 13.22 29.3124 13.22C28.9324 13.22 28.6224 13.32 28.3824 13.52C28.1424 13.7133 28.0224 13.9867 28.0224 14.34C28.0224 14.5933 28.0924 14.8 28.2324 14.96C28.3791 15.12 28.5558 15.2433 28.7624 15.33C28.9758 15.41 29.2724 15.5033 29.6524 15.61C30.1124 15.7367 30.4824 15.8633 30.7624 15.99C31.0424 16.11 31.2824 16.3 31.4824 16.56C31.6824 16.8133 31.7824 17.16 31.7824 17.6C31.7824 17.94 31.6924 18.26 31.5124 18.56C31.3324 18.86 31.0658 19.1033 30.7124 19.29C30.3591 19.4767 29.9424 19.57 29.4624 19.57Z" fill="#808080"/>
<path d="M21.684 26.16V34.5H20.316V28.788L17.772 34.5H16.824L14.268 28.788V34.5H12.9V26.16H14.376L17.304 32.7L20.22 26.16H21.684ZM24.178 27.012C23.93 27.012 23.722 26.928 23.554 26.76C23.386 26.592 23.302 26.384 23.302 26.136C23.302 25.888 23.386 25.68 23.554 25.512C23.722 25.344 23.93 25.26 24.178 25.26C24.418 25.26 24.622 25.344 24.79 25.512C24.958 25.68 25.042 25.888 25.042 26.136C25.042 26.384 24.958 26.592 24.79 26.76C24.622 26.928 24.418 27.012 24.178 27.012ZM24.85 27.888V34.5H23.482V27.888H24.85ZM29.0461 34.608C28.5261 34.608 28.0581 34.516 27.6421 34.332C27.2341 34.14 26.9101 33.884 26.6701 33.564C26.4301 33.236 26.3021 32.872 26.2861 32.472H27.7021C27.7261 32.752 27.8581 32.988 28.0981 33.18C28.3461 33.364 28.6541 33.456 29.0221 33.456C29.4061 33.456 29.7021 33.384 29.9101 33.24C30.1261 33.088 30.2341 32.896 30.2341 32.664C30.2341 32.416 30.1141 32.232 29.8741 32.112C29.6421 31.992 29.2701 31.86 28.7581 31.716C28.2621 31.58 27.8581 31.448 27.5461 31.32C27.2341 31.192 26.9621 30.996 26.7301 30.732C26.5061 30.468 26.3941 30.12 26.3941 29.688C26.3941 29.336 26.4981 29.016 26.7061 28.728C26.9141 28.432 27.2101 28.2 27.5941 28.032C27.9861 27.864 28.4341 27.78 28.9381 27.78C29.6901 27.78 30.2941 27.972 30.7501 28.356C31.2141 28.732 31.4621 29.248 31.4941 29.904H30.1261C30.1021 29.608 29.9821 29.372 29.7661 29.196C29.5501 29.02 29.2581 28.932 28.8901 28.932C28.5301 28.932 28.2541 29 28.0621 29.136C27.8701 29.272 27.7741 29.452 27.7741 29.676C27.7741 29.852 27.8381 30 27.9661 30.12C28.0941 30.24 28.2501 30.336 28.4341 30.408C28.6181 30.472 28.8901 30.556 29.2501 30.66C29.7301 30.788 30.1221 30.92 30.4261 31.056C30.7381 31.184 31.0061 31.376 31.2301 31.632C31.4541 31.888 31.5701 32.228 31.5781 32.652C31.5781 33.028 31.4741 33.364 31.2661 33.66C31.0581 33.956 30.7621 34.188 30.3781 34.356C30.0021 34.524 29.5581 34.608 29.0461 34.608ZM35.4563 34.608C34.9363 34.608 34.4683 34.516 34.0523 34.332C33.6443 34.14 33.3203 33.884 33.0803 33.564C32.8403 33.236 32.7123 32.872 32.6963 32.472H34.1123C34.1363 32.752 34.2683 32.988 34.5083 33.18C34.7563 33.364 35.0643 33.456 35.4323 33.456C35.8163 33.456 36.1123 33.384 36.3203 33.24C36.5363 33.088 36.6443 32.896 36.6443 32.664C36.6443 32.416 36.5243 32.232 36.2843 32.112C36.0523 31.992 35.6803 31.86 35.1683 31.716C34.6723 31.58 34.2683 31.448 33.9563 31.32C33.6443 31.192 33.3723 30.996 33.1403 30.732C32.9163 30.468 32.8043 30.12 32.8043 29.688C32.8043 29.336 32.9083 29.016 33.1163 28.728C33.3243 28.432 33.6203 28.2 34.0043 28.032C34.3963 27.864 34.8443 27.78 35.3483 27.78C36.1003 27.78 36.7043 27.972 37.1603 28.356C37.6243 28.732 37.8723 29.248 37.9043 29.904H36.5363C36.5123 29.608 36.3923 29.372 36.1763 29.196C35.9603 29.02 35.6683 28.932 35.3003 28.932C34.9403 28.932 34.6643 29 34.4723 29.136C34.2803 29.272 34.1843 29.452 34.1843 29.676C34.1843 29.852 34.2483 30 34.3763 30.12C34.5043 30.24 34.6603 30.336 34.8443 30.408C35.0283 30.472 35.3003 30.556 35.6603 30.66C36.1403 30.788 36.5323 30.92 36.8363 31.056C37.1483 31.184 37.4163 31.376 37.6403 31.632C37.8643 31.888 37.9803 32.228 37.9883 32.652C37.9883 33.028 37.8843 33.364 37.6763 33.66C37.4683 33.956 37.1723 34.188 36.7883 34.356C36.4123 34.524 35.9683 34.608 35.4563 34.608ZM40.1624 27.012C39.9144 27.012 39.7064 26.928 39.5384 26.76C39.3704 26.592 39.2864 26.384 39.2864 26.136C39.2864 25.888 39.3704 25.68 39.5384 25.512C39.7064 25.344 39.9144 25.26 40.1624 25.26C40.4024 25.26 40.6064 25.344 40.7744 25.512C40.9424 25.68 41.0264 25.888 41.0264 26.136C41.0264 26.384 40.9424 26.592 40.7744 26.76C40.6064 26.928 40.4024 27.012 40.1624 27.012ZM40.8344 27.888V34.5H39.4664V27.888H40.8344ZM45.9665 27.78C46.4865 27.78 46.9505 27.888 47.3585 28.104C47.7745 28.32 48.0985 28.64 48.3305 29.064C48.5625 29.488 48.6785 30 48.6785 30.6V34.5H47.3225V30.804C47.3225 30.212 47.1745 29.76 46.8785 29.448C46.5825 29.128 46.1785 28.968 45.6665 28.968C45.1545 28.968 44.7465 29.128 44.4425 29.448C44.1465 29.76 43.9985 30.212 43.9985 30.804V34.5H42.6305V27.888H43.9985V28.644C44.2225 28.372 44.5065 28.16 44.8505 28.008C45.2025 27.856 45.5745 27.78 45.9665 27.78ZM53.0874 27.78C53.5994 27.78 54.0514 27.884 54.4434 28.092C54.8434 28.292 55.1554 28.544 55.3794 28.848V27.888H56.7594V34.608C56.7594 35.216 56.6314 35.756 56.3754 36.228C56.1194 36.708 55.7474 37.084 55.2594 37.356C54.7794 37.628 54.2034 37.764 53.5314 37.764C52.6354 37.764 51.8914 37.552 51.2994 37.128C50.7074 36.712 50.3714 36.144 50.2914 35.424H51.6474C51.7514 35.768 51.9714 36.044 52.3074 36.252C52.6514 36.468 53.0594 36.576 53.5314 36.576C54.0834 36.576 54.5274 36.408 54.8634 36.072C55.2074 35.736 55.3794 35.248 55.3794 34.608V33.504C55.1474 33.816 54.8314 34.08 54.4314 34.296C54.0394 34.504 53.5914 34.608 53.0874 34.608C52.5114 34.608 51.9834 34.464 51.5034 34.176C51.0314 33.88 50.6554 33.472 50.3754 32.952C50.1034 32.424 49.9674 31.828 49.9674 31.164C49.9674 30.5 50.1034 29.912 50.3754 29.4C50.6554 28.888 51.0314 28.492 51.5034 28.212C51.9834 27.924 52.5114 27.78 53.0874 27.78ZM55.3794 31.188C55.3794 30.732 55.2834 30.336 55.0914 30C54.9074 29.664 54.6634 29.408 54.3594 29.232C54.0554 29.056 53.7274 28.968 53.3754 28.968C53.0234 28.968 52.6954 29.056 52.3914 29.232C52.0874 29.4 51.8394 29.652 51.6474 29.988C51.4634 30.316 51.3714 30.708 51.3714 31.164C51.3714 31.62 51.4634 32.02 51.6474 32.364C51.8394 32.708 52.0874 32.972 52.3914 33.156C52.7034 33.332 53.0314 33.42 53.3754 33.42C53.7274 33.42 54.0554 33.332 54.3594 33.156C54.6634 32.98 54.9074 32.724 55.0914 32.388C55.2834 32.044 55.3794 31.644 55.3794 31.188Z" fill="#1A1A1A"/>
<path d="M90.4545 31L86 34.5V16C86 15.4477 86.4477 15 87 15H105C105.552 15 106 15.4477 106 16V30C106 30.5523 105.552 31 105 31H90.4545Z" fill="#FF8000"/>
<path d="M99.889 20.5255L97.4141 23.0004L99.889 25.4753L98.4748 26.8895L95.9999 24.4146L93.5251 26.8895L92.1108 25.4753L94.5857 23.0004L92.1108 20.5255L93.5251 19.1113L95.9999 21.5862L98.4748 19.1113L99.889 20.5255Z" fill="white"/>
</svg>
