<svg width="120" height="48" viewBox="0 0 120 48" fill="none" xmlns="http://www.w3.org/2000/svg">
<rect width="120" height="48" rx="10" fill="black" fill-opacity="0.08"/>
<path d="M14.98 19.57C14.52 19.57 14.1067 19.49 13.74 19.33C13.38 19.1633 13.0967 18.9367 12.89 18.65C12.6833 18.3567 12.5767 18.02 12.57 17.64H13.54C13.5733 17.9667 13.7067 18.2433 13.94 18.47C14.18 18.69 14.5267 18.8 14.98 18.8C15.4133 18.8 15.7533 18.6933 16 18.48C16.2533 18.26 16.38 17.98 16.38 17.64C16.38 17.3733 16.3067 17.1567 16.16 16.99C16.0133 16.8233 15.83 16.6967 15.61 16.61C15.39 16.5233 15.0933 16.43 14.72 16.33C14.26 16.21 13.89 16.09 13.61 15.97C13.3367 15.85 13.1 15.6633 12.9 15.41C12.7067 15.15 12.61 14.8033 12.61 14.37C12.61 13.99 12.7067 13.6533 12.9 13.36C13.0933 13.0667 13.3633 12.84 13.71 12.68C14.0633 12.52 14.4667 12.44 14.92 12.44C15.5733 12.44 16.1067 12.6033 16.52 12.93C16.94 13.2567 17.1767 13.69 17.23 14.23H16.23C16.1967 13.9633 16.0567 13.73 15.81 13.53C15.5633 13.3233 15.2367 13.22 14.83 13.22C14.45 13.22 14.14 13.32 13.9 13.52C13.66 13.7133 13.54 13.9867 13.54 14.34C13.54 14.5933 13.61 14.8 13.75 14.96C13.8967 15.12 14.0733 15.2433 14.28 15.33C14.4933 15.41 14.79 15.5033 15.17 15.61C15.63 15.7367 16 15.8633 16.28 15.99C16.56 16.11 16.8 16.3 17 16.56C17.2 16.8133 17.3 17.16 17.3 17.6C17.3 17.94 17.21 18.26 17.03 18.56C16.85 18.86 16.5833 19.1033 16.23 19.29C15.8767 19.4767 15.46 19.57 14.98 19.57ZM25.7091 12.58V19.5H24.7991V14.34L22.4991 19.5H21.8591L19.5491 14.33V19.5H18.6391V12.58H19.6191L22.1791 18.3L24.7391 12.58H25.7091ZM29.4624 19.57C29.0024 19.57 28.5891 19.49 28.2224 19.33C27.8624 19.1633 27.5791 18.9367 27.3724 18.65C27.1658 18.3567 27.0591 18.02 27.0524 17.64H28.0224C28.0558 17.9667 28.1891 18.2433 28.4224 18.47C28.6624 18.69 29.0091 18.8 29.4624 18.8C29.8958 18.8 30.2358 18.6933 30.4824 18.48C30.7358 18.26 30.8624 17.98 30.8624 17.64C30.8624 17.3733 30.7891 17.1567 30.6424 16.99C30.4958 16.8233 30.3124 16.6967 30.0924 16.61C29.8724 16.5233 29.5758 16.43 29.2024 16.33C28.7424 16.21 28.3724 16.09 28.0924 15.97C27.8191 15.85 27.5824 15.6633 27.3824 15.41C27.1891 15.15 27.0924 14.8033 27.0924 14.37C27.0924 13.99 27.1891 13.6533 27.3824 13.36C27.5758 13.0667 27.8458 12.84 28.1924 12.68C28.5458 12.52 28.9491 12.44 29.4024 12.44C30.0558 12.44 30.5891 12.6033 31.0024 12.93C31.4224 13.2567 31.6591 13.69 31.7124 14.23H30.7124C30.6791 13.9633 30.5391 13.73 30.2924 13.53C30.0458 13.3233 29.7191 13.22 29.3124 13.22C28.9324 13.22 28.6224 13.32 28.3824 13.52C28.1424 13.7133 28.0224 13.9867 28.0224 14.34C28.0224 14.5933 28.0924 14.8 28.2324 14.96C28.3791 15.12 28.5558 15.2433 28.7624 15.33C28.9758 15.41 29.2724 15.5033 29.6524 15.61C30.1124 15.7367 30.4824 15.8633 30.7624 15.99C31.0424 16.11 31.2824 16.3 31.4824 16.56C31.6824 16.8133 31.7824 17.16 31.7824 17.6C31.7824 17.94 31.6924 18.26 31.5124 18.56C31.3324 18.86 31.0658 19.1033 30.7124 19.29C30.3591 19.4767 29.9424 19.57 29.4624 19.57Z" fill="#808080"/>
<path d="M17.976 29.58V30.732H13.044V29.58H17.976Z" fill="#1A1A1A"/>
<path d="M90.4545 31L86 34.5V16C86 15.4477 86.4477 15 87 15H105C105.552 15 106 15.4477 106 16V30C106 30.5523 105.552 31 105 31H90.4545Z" fill="#B3B3B3"/>
</svg>
