<svg width="120" height="48" viewBox="0 0 120 48" fill="none" xmlns="http://www.w3.org/2000/svg">
<rect width="120" height="48" rx="10" fill="#46BEAB" fill-opacity="0.08"/>
<path d="M14.98 19.57C14.52 19.57 14.1067 19.49 13.74 19.33C13.38 19.1633 13.0967 18.9367 12.89 18.65C12.6833 18.3567 12.5767 18.02 12.57 17.64H13.54C13.5733 17.9667 13.7067 18.2433 13.94 18.47C14.18 18.69 14.5267 18.8 14.98 18.8C15.4133 18.8 15.7533 18.6933 16 18.48C16.2533 18.26 16.38 17.98 16.38 17.64C16.38 17.3733 16.3067 17.1567 16.16 16.99C16.0133 16.8233 15.83 16.6967 15.61 16.61C15.39 16.5233 15.0933 16.43 14.72 16.33C14.26 16.21 13.89 16.09 13.61 15.97C13.3367 15.85 13.1 15.6633 12.9 15.41C12.7067 15.15 12.61 14.8033 12.61 14.37C12.61 13.99 12.7067 13.6533 12.9 13.36C13.0933 13.0667 13.3633 12.84 13.71 12.68C14.0633 12.52 14.4667 12.44 14.92 12.44C15.5733 12.44 16.1067 12.6033 16.52 12.93C16.94 13.2567 17.1767 13.69 17.23 14.23H16.23C16.1967 13.9633 16.0567 13.73 15.81 13.53C15.5633 13.3233 15.2367 13.22 14.83 13.22C14.45 13.22 14.14 13.32 13.9 13.52C13.66 13.7133 13.54 13.9867 13.54 14.34C13.54 14.5933 13.61 14.8 13.75 14.96C13.8967 15.12 14.0733 15.2433 14.28 15.33C14.4933 15.41 14.79 15.5033 15.17 15.61C15.63 15.7367 16 15.8633 16.28 15.99C16.56 16.11 16.8 16.3 17 16.56C17.2 16.8133 17.3 17.16 17.3 17.6C17.3 17.94 17.21 18.26 17.03 18.56C16.85 18.86 16.5833 19.1033 16.23 19.29C15.8767 19.4767 15.46 19.57 14.98 19.57ZM25.7091 12.58V19.5H24.7991V14.34L22.4991 19.5H21.8591L19.5491 14.33V19.5H18.6391V12.58H19.6191L22.1791 18.3L24.7391 12.58H25.7091ZM29.4624 19.57C29.0024 19.57 28.5891 19.49 28.2224 19.33C27.8624 19.1633 27.5791 18.9367 27.3724 18.65C27.1658 18.3567 27.0591 18.02 27.0524 17.64H28.0224C28.0558 17.9667 28.1891 18.2433 28.4224 18.47C28.6624 18.69 29.0091 18.8 29.4624 18.8C29.8958 18.8 30.2358 18.6933 30.4824 18.48C30.7358 18.26 30.8624 17.98 30.8624 17.64C30.8624 17.3733 30.7891 17.1567 30.6424 16.99C30.4958 16.8233 30.3124 16.6967 30.0924 16.61C29.8724 16.5233 29.5758 16.43 29.2024 16.33C28.7424 16.21 28.3724 16.09 28.0924 15.97C27.8191 15.85 27.5824 15.6633 27.3824 15.41C27.1891 15.15 27.0924 14.8033 27.0924 14.37C27.0924 13.99 27.1891 13.6533 27.3824 13.36C27.5758 13.0667 27.8458 12.84 28.1924 12.68C28.5458 12.52 28.9491 12.44 29.4024 12.44C30.0558 12.44 30.5891 12.6033 31.0024 12.93C31.4224 13.2567 31.6591 13.69 31.7124 14.23H30.7124C30.6791 13.9633 30.5391 13.73 30.2924 13.53C30.0458 13.3233 29.7191 13.22 29.3124 13.22C28.9324 13.22 28.6224 13.32 28.3824 13.52C28.1424 13.7133 28.0224 13.9867 28.0224 14.34C28.0224 14.5933 28.0924 14.8 28.2324 14.96C28.3791 15.12 28.5558 15.2433 28.7624 15.33C28.9758 15.41 29.2724 15.5033 29.6524 15.61C30.1124 15.7367 30.4824 15.8633 30.7624 15.99C31.0424 16.11 31.2824 16.3 31.4824 16.56C31.6824 16.8133 31.7824 17.16 31.7824 17.6C31.7824 17.94 31.6924 18.26 31.5124 18.56C31.3324 18.86 31.0658 19.1033 30.7124 19.29C30.3591 19.4767 29.9424 19.57 29.4624 19.57Z" fill="#808080"/>
<path d="M17.232 34.5L15.312 31.164H14.268V34.5H12.9V26.16H15.78C16.42 26.16 16.96 26.272 17.4 26.496C17.848 26.72 18.18 27.02 18.396 27.396C18.62 27.772 18.732 28.192 18.732 28.656C18.732 29.2 18.572 29.696 18.252 30.144C17.94 30.584 17.456 30.884 16.8 31.044L18.864 34.5H17.232ZM14.268 30.072H15.78C16.292 30.072 16.676 29.944 16.932 29.688C17.196 29.432 17.328 29.088 17.328 28.656C17.328 28.224 17.2 27.888 16.944 27.648C16.688 27.4 16.3 27.276 15.78 27.276H14.268V30.072ZM26.542 31.032C26.542 31.28 26.526 31.504 26.494 31.704H21.442C21.482 32.232 21.678 32.656 22.03 32.976C22.382 33.296 22.814 33.456 23.326 33.456C24.062 33.456 24.582 33.148 24.886 32.532H26.362C26.162 33.14 25.798 33.64 25.27 34.032C24.75 34.416 24.102 34.608 23.326 34.608C22.694 34.608 22.126 34.468 21.622 34.188C21.126 33.9 20.734 33.5 20.446 32.988C20.166 32.468 20.026 31.868 20.026 31.188C20.026 30.508 20.162 29.912 20.434 29.4C20.714 28.88 21.102 28.48 21.598 28.2C22.102 27.92 22.678 27.78 23.326 27.78C23.95 27.78 24.506 27.916 24.994 28.188C25.482 28.46 25.862 28.844 26.134 29.34C26.406 29.828 26.542 30.392 26.542 31.032ZM25.114 30.6C25.106 30.096 24.926 29.692 24.574 29.388C24.222 29.084 23.786 28.932 23.266 28.932C22.794 28.932 22.39 29.084 22.054 29.388C21.718 29.684 21.518 30.088 21.454 30.6H25.114ZM27.4323 31.188C27.4323 30.508 27.5683 29.912 27.8403 29.4C28.1203 28.88 28.5043 28.48 28.9923 28.2C29.4803 27.92 30.0403 27.78 30.6723 27.78C31.4723 27.78 32.1323 27.972 32.6523 28.356C33.1803 28.732 33.5363 29.272 33.7203 29.976H32.2443C32.1243 29.648 31.9323 29.392 31.6683 29.208C31.4043 29.024 31.0723 28.932 30.6723 28.932C30.1123 28.932 29.6643 29.132 29.3283 29.532C29.0003 29.924 28.8363 30.476 28.8363 31.188C28.8363 31.9 29.0003 32.456 29.3283 32.856C29.6643 33.256 30.1123 33.456 30.6723 33.456C31.4643 33.456 31.9883 33.108 32.2443 32.412H33.7203C33.5283 33.084 33.1683 33.62 32.6403 34.02C32.1123 34.412 31.4563 34.608 30.6723 34.608C30.0403 34.608 29.4803 34.468 28.9923 34.188C28.5043 33.9 28.1203 33.5 27.8403 32.988C27.5683 32.468 27.4323 31.868 27.4323 31.188ZM41.1436 31.032C41.1436 31.28 41.1276 31.504 41.0956 31.704H36.0436C36.0836 32.232 36.2796 32.656 36.6316 32.976C36.9836 33.296 37.4156 33.456 37.9276 33.456C38.6636 33.456 39.1836 33.148 39.4876 32.532H40.9636C40.7636 33.14 40.3996 33.64 39.8716 34.032C39.3516 34.416 38.7036 34.608 37.9276 34.608C37.2956 34.608 36.7276 34.468 36.2236 34.188C35.7276 33.9 35.3356 33.5 35.0476 32.988C34.7676 32.468 34.6276 31.868 34.6276 31.188C34.6276 30.508 34.7636 29.912 35.0356 29.4C35.3156 28.88 35.7036 28.48 36.1996 28.2C36.7036 27.92 37.2796 27.78 37.9276 27.78C38.5516 27.78 39.1076 27.916 39.5956 28.188C40.0836 28.46 40.4636 28.844 40.7356 29.34C41.0076 29.828 41.1436 30.392 41.1436 31.032ZM39.7156 30.6C39.7076 30.096 39.5276 29.692 39.1756 29.388C38.8236 29.084 38.3876 28.932 37.8676 28.932C37.3956 28.932 36.9916 29.084 36.6556 29.388C36.3196 29.684 36.1196 30.088 36.0556 30.6H39.7156ZM43.1858 27.012C42.9378 27.012 42.7298 26.928 42.5618 26.76C42.3938 26.592 42.3098 26.384 42.3098 26.136C42.3098 25.888 42.3938 25.68 42.5618 25.512C42.7298 25.344 42.9378 25.26 43.1858 25.26C43.4258 25.26 43.6298 25.344 43.7978 25.512C43.9658 25.68 44.0498 25.888 44.0498 26.136C44.0498 26.384 43.9658 26.592 43.7978 26.76C43.6298 26.928 43.4258 27.012 43.1858 27.012ZM43.8578 27.888V34.5H42.4898V27.888H43.8578ZM48.2099 33.276L50.0819 27.888H51.5339L49.0139 34.5H47.3819L44.8739 27.888H46.3379L48.2099 33.276ZM58.628 31.032C58.628 31.28 58.612 31.504 58.58 31.704H53.528C53.568 32.232 53.764 32.656 54.116 32.976C54.468 33.296 54.9 33.456 55.412 33.456C56.148 33.456 56.668 33.148 56.972 32.532H58.448C58.248 33.14 57.884 33.64 57.356 34.032C56.836 34.416 56.188 34.608 55.412 34.608C54.78 34.608 54.212 34.468 53.708 34.188C53.212 33.9 52.82 33.5 52.532 32.988C52.252 32.468 52.112 31.868 52.112 31.188C52.112 30.508 52.248 29.912 52.52 29.4C52.8 28.88 53.188 28.48 53.684 28.2C54.188 27.92 54.764 27.78 55.412 27.78C56.036 27.78 56.592 27.916 57.08 28.188C57.568 28.46 57.948 28.844 58.22 29.34C58.492 29.828 58.628 30.392 58.628 31.032ZM57.2 30.6C57.192 30.096 57.012 29.692 56.66 29.388C56.308 29.084 55.872 28.932 55.352 28.932C54.88 28.932 54.476 29.084 54.14 29.388C53.804 29.684 53.604 30.088 53.54 30.6H57.2ZM59.5182 31.164C59.5182 30.5 59.6542 29.912 59.9262 29.4C60.2062 28.888 60.5822 28.492 61.0542 28.212C61.5342 27.924 62.0662 27.78 62.6502 27.78C63.0822 27.78 63.5062 27.876 63.9222 28.068C64.3462 28.252 64.6822 28.5 64.9302 28.812V25.62H66.3102V34.5H64.9302V33.504C64.7062 33.824 64.3942 34.088 63.9942 34.296C63.6022 34.504 63.1502 34.608 62.6382 34.608C62.0622 34.608 61.5342 34.464 61.0542 34.176C60.5822 33.88 60.2062 33.472 59.9262 32.952C59.6542 32.424 59.5182 31.828 59.5182 31.164ZM64.9302 31.188C64.9302 30.732 64.8342 30.336 64.6422 30C64.4582 29.664 64.2142 29.408 63.9102 29.232C63.6062 29.056 63.2782 28.968 62.9262 28.968C62.5742 28.968 62.2462 29.056 61.9422 29.232C61.6382 29.4 61.3902 29.652 61.1982 29.988C61.0142 30.316 60.9222 30.708 60.9222 31.164C60.9222 31.62 61.0142 32.02 61.1982 32.364C61.3902 32.708 61.6382 32.972 61.9422 33.156C62.2542 33.332 62.5822 33.42 62.9262 33.42C63.2782 33.42 63.6062 33.332 63.9102 33.156C64.2142 32.98 64.4582 32.724 64.6422 32.388C64.8342 32.044 64.9302 31.644 64.9302 31.188Z" fill="#1A1A1A"/>
<path d="M90.4545 31L86 34.5V16C86 15.4477 86.4477 15 87 15H105C105.552 15 106 15.4477 106 16V30C106 30.5523 105.552 31 105 31H90.4545Z" fill="#00A79D"/>
<path d="M92.818 21.6467L95.2929 24.1215L99.5355 19.8789L100.95 21.2931L95.2929 26.9499L91.4038 23.0609L92.818 21.6467Z" fill="white"/>
</svg>
