<svg width="120" height="48" viewBox="0 0 120 48" fill="none" xmlns="http://www.w3.org/2000/svg">
<rect width="120" height="48" rx="10" fill="#E51717" fill-opacity="0.15"/>
<path d="M14.98 19.57C14.52 19.57 14.1067 19.49 13.74 19.33C13.38 19.1633 13.0967 18.9367 12.89 18.65C12.6833 18.3567 12.5767 18.02 12.57 17.64H13.54C13.5733 17.9667 13.7067 18.2433 13.94 18.47C14.18 18.69 14.5267 18.8 14.98 18.8C15.4133 18.8 15.7533 18.6933 16 18.48C16.2533 18.26 16.38 17.98 16.38 17.64C16.38 17.3733 16.3067 17.1567 16.16 16.99C16.0133 16.8233 15.83 16.6967 15.61 16.61C15.39 16.5233 15.0933 16.43 14.72 16.33C14.26 16.21 13.89 16.09 13.61 15.97C13.3367 15.85 13.1 15.6633 12.9 15.41C12.7067 15.15 12.61 14.8033 12.61 14.37C12.61 13.99 12.7067 13.6533 12.9 13.36C13.0933 13.0667 13.3633 12.84 13.71 12.68C14.0633 12.52 14.4667 12.44 14.92 12.44C15.5733 12.44 16.1067 12.6033 16.52 12.93C16.94 13.2567 17.1767 13.69 17.23 14.23H16.23C16.1967 13.9633 16.0567 13.73 15.81 13.53C15.5633 13.3233 15.2367 13.22 14.83 13.22C14.45 13.22 14.14 13.32 13.9 13.52C13.66 13.7133 13.54 13.9867 13.54 14.34C13.54 14.5933 13.61 14.8 13.75 14.96C13.8967 15.12 14.0733 15.2433 14.28 15.33C14.4933 15.41 14.79 15.5033 15.17 15.61C15.63 15.7367 16 15.8633 16.28 15.99C16.56 16.11 16.8 16.3 17 16.56C17.2 16.8133 17.3 17.16 17.3 17.6C17.3 17.94 17.21 18.26 17.03 18.56C16.85 18.86 16.5833 19.1033 16.23 19.29C15.8767 19.4767 15.46 19.57 14.98 19.57ZM25.7091 12.58V19.5H24.7991V14.34L22.4991 19.5H21.8591L19.5491 14.33V19.5H18.6391V12.58H19.6191L22.1791 18.3L24.7391 12.58H25.7091ZM29.4624 19.57C29.0024 19.57 28.5891 19.49 28.2224 19.33C27.8624 19.1633 27.5791 18.9367 27.3724 18.65C27.1658 18.3567 27.0591 18.02 27.0524 17.64H28.0224C28.0558 17.9667 28.1891 18.2433 28.4224 18.47C28.6624 18.69 29.0091 18.8 29.4624 18.8C29.8958 18.8 30.2358 18.6933 30.4824 18.48C30.7358 18.26 30.8624 17.98 30.8624 17.64C30.8624 17.3733 30.7891 17.1567 30.6424 16.99C30.4958 16.8233 30.3124 16.6967 30.0924 16.61C29.8724 16.5233 29.5758 16.43 29.2024 16.33C28.7424 16.21 28.3724 16.09 28.0924 15.97C27.8191 15.85 27.5824 15.6633 27.3824 15.41C27.1891 15.15 27.0924 14.8033 27.0924 14.37C27.0924 13.99 27.1891 13.6533 27.3824 13.36C27.5758 13.0667 27.8458 12.84 28.1924 12.68C28.5458 12.52 28.9491 12.44 29.4024 12.44C30.0558 12.44 30.5891 12.6033 31.0024 12.93C31.4224 13.2567 31.6591 13.69 31.7124 14.23H30.7124C30.6791 13.9633 30.5391 13.73 30.2924 13.53C30.0458 13.3233 29.7191 13.22 29.3124 13.22C28.9324 13.22 28.6224 13.32 28.3824 13.52C28.1424 13.7133 28.0224 13.9867 28.0224 14.34C28.0224 14.5933 28.0924 14.8 28.2324 14.96C28.3791 15.12 28.5558 15.2433 28.7624 15.33C28.9758 15.41 29.2724 15.5033 29.6524 15.61C30.1124 15.7367 30.4824 15.8633 30.7624 15.99C31.0424 16.11 31.2824 16.3 31.4824 16.56C31.6824 16.8133 31.7824 17.16 31.7824 17.6C31.7824 17.94 31.6924 18.26 31.5124 18.56C31.3324 18.86 31.0658 19.1033 30.7124 19.29C30.3591 19.4767 29.9424 19.57 29.4624 19.57Z" fill="#808080"/>
<path d="M12.444 30.312C12.444 29.496 12.632 28.764 13.008 28.116C13.392 27.468 13.908 26.964 14.556 26.604C15.212 26.236 15.928 26.052 16.704 26.052C17.592 26.052 18.38 26.272 19.068 26.712C19.764 27.144 20.268 27.76 20.58 28.56H18.936C18.72 28.12 18.42 27.792 18.036 27.576C17.652 27.36 17.208 27.252 16.704 27.252C16.152 27.252 15.66 27.376 15.228 27.624C14.796 27.872 14.456 28.228 14.208 28.692C13.968 29.156 13.848 29.696 13.848 30.312C13.848 30.928 13.968 31.468 14.208 31.932C14.456 32.396 14.796 32.756 15.228 33.012C15.66 33.26 16.152 33.384 16.704 33.384C17.208 33.384 17.652 33.276 18.036 33.06C18.42 32.844 18.72 32.516 18.936 32.076H20.58C20.268 32.876 19.764 33.492 19.068 33.924C18.38 34.356 17.592 34.572 16.704 34.572C15.92 34.572 15.204 34.392 14.556 34.032C13.908 33.664 13.392 33.156 13.008 32.508C12.632 31.86 12.444 31.128 12.444 30.312ZM23.5493 28.848C23.7493 28.512 24.0133 28.252 24.3413 28.068C24.6773 27.876 25.0733 27.78 25.5293 27.78V29.196H25.1813C24.6453 29.196 24.2373 29.332 23.9573 29.604C23.6853 29.876 23.5493 30.348 23.5493 31.02V34.5H22.1813V27.888H23.5493V28.848ZM27.4827 27.012C27.2347 27.012 27.0267 26.928 26.8587 26.76C26.6907 26.592 26.6067 26.384 26.6067 26.136C26.6067 25.888 26.6907 25.68 26.8587 25.512C27.0267 25.344 27.2347 25.26 27.4827 25.26C27.7227 25.26 27.9267 25.344 28.0947 25.512C28.2627 25.68 28.3467 25.888 28.3467 26.136C28.3467 26.384 28.2627 26.592 28.0947 26.76C27.9267 26.928 27.7227 27.012 27.4827 27.012ZM28.1547 27.888V34.5H26.7867V27.888H28.1547ZM31.5468 29.004V32.664C31.5468 32.912 31.6028 33.092 31.7148 33.204C31.8348 33.308 32.0348 33.36 32.3148 33.36H33.1548V34.5H32.0748C31.4588 34.5 30.9868 34.356 30.6588 34.068C30.3308 33.78 30.1668 33.312 30.1668 32.664V29.004H29.3868V27.888H30.1668V26.244H31.5468V27.888H33.1548V29.004H31.5468ZM35.1116 27.012C34.8636 27.012 34.6556 26.928 34.4876 26.76C34.3196 26.592 34.2356 26.384 34.2356 26.136C34.2356 25.888 34.3196 25.68 34.4876 25.512C34.6556 25.344 34.8636 25.26 35.1116 25.26C35.3516 25.26 35.5556 25.344 35.7236 25.512C35.8916 25.68 35.9756 25.888 35.9756 26.136C35.9756 26.384 35.8916 26.592 35.7236 26.76C35.5556 26.928 35.3516 27.012 35.1116 27.012ZM35.7836 27.888V34.5H34.4156V27.888H35.7836ZM37.1237 31.188C37.1237 30.508 37.2597 29.912 37.5317 29.4C37.8117 28.88 38.1957 28.48 38.6837 28.2C39.1717 27.92 39.7317 27.78 40.3637 27.78C41.1637 27.78 41.8237 27.972 42.3437 28.356C42.8717 28.732 43.2277 29.272 43.4117 29.976H41.9357C41.8157 29.648 41.6237 29.392 41.3597 29.208C41.0957 29.024 40.7637 28.932 40.3637 28.932C39.8037 28.932 39.3557 29.132 39.0197 29.532C38.6917 29.924 38.5277 30.476 38.5277 31.188C38.5277 31.9 38.6917 32.456 39.0197 32.856C39.3557 33.256 39.8037 33.456 40.3637 33.456C41.1557 33.456 41.6797 33.108 41.9357 32.412H43.4117C43.2197 33.084 42.8597 33.62 42.3317 34.02C41.8037 34.412 41.1477 34.608 40.3637 34.608C39.7317 34.608 39.1717 34.468 38.6837 34.188C38.1957 33.9 37.8117 33.5 37.5317 32.988C37.2597 32.468 37.1237 31.868 37.1237 31.188ZM44.319 31.164C44.319 30.5 44.455 29.912 44.727 29.4C45.007 28.888 45.383 28.492 45.855 28.212C46.335 27.924 46.863 27.78 47.439 27.78C47.959 27.78 48.411 27.884 48.795 28.092C49.187 28.292 49.499 28.544 49.731 28.848V27.888H51.111V34.5H49.731V33.516C49.499 33.828 49.183 34.088 48.783 34.296C48.383 34.504 47.927 34.608 47.415 34.608C46.847 34.608 46.327 34.464 45.855 34.176C45.383 33.88 45.007 33.472 44.727 32.952C44.455 32.424 44.319 31.828 44.319 31.164ZM49.731 31.188C49.731 30.732 49.635 30.336 49.443 30C49.259 29.664 49.015 29.408 48.711 29.232C48.407 29.056 48.079 28.968 47.727 28.968C47.375 28.968 47.047 29.056 46.743 29.232C46.439 29.4 46.191 29.652 45.999 29.988C45.815 30.316 45.723 30.708 45.723 31.164C45.723 31.62 45.815 32.02 45.999 32.364C46.191 32.708 46.439 32.972 46.743 33.156C47.055 33.332 47.383 33.42 47.727 33.42C48.079 33.42 48.407 33.332 48.711 33.156C49.015 32.98 49.259 32.724 49.443 32.388C49.635 32.044 49.731 31.644 49.731 31.188ZM54.2758 25.62V34.5H52.9078V25.62H54.2758Z" fill="#1A1A1A"/>
<path d="M90.4545 31L86 34.5V16C86 15.4477 86.4477 15 87 15H105C105.552 15 106 15.4477 106 16V30C106 30.5523 105.552 31 105 31H90.4545Z" fill="#E51717"/>
<path d="M99.889 20.5255L97.4141 23.0004L99.889 25.4753L98.4748 26.8895L95.9999 24.4146L93.5251 26.8895L92.1108 25.4753L94.5857 23.0004L92.1108 20.5255L93.5251 19.1113L95.9999 21.5862L98.4748 19.1113L99.889 20.5255Z" fill="white"/>
</svg>
