<svg width="120" height="48" viewBox="0 0 120 48" fill="none" xmlns="http://www.w3.org/2000/svg">
<rect width="120" height="48" rx="10" fill="#46BEAB" fill-opacity="0.08"/>
<path d="M17.06 12.53V13.27H15.16V19.5H14.25V13.27H12.34V12.53H17.06ZM19.0902 14.91C19.2502 14.5967 19.4768 14.3533 19.7702 14.18C20.0702 14.0067 20.4335 13.92 20.8602 13.92V14.86H20.6202C19.6002 14.86 19.0902 15.4133 19.0902 16.52V19.5H18.1802V14.02H19.0902V14.91ZM21.5706 16.74C21.5706 16.18 21.684 15.69 21.9106 15.27C22.1373 14.8433 22.4473 14.5133 22.8406 14.28C23.2406 14.0467 23.684 13.93 24.1706 13.93C24.6506 13.93 25.0673 14.0333 25.4206 14.24C25.774 14.4467 26.0373 14.7067 26.2106 15.02V14.02H27.1306V19.5H26.2106V18.48C26.0306 18.8 25.7606 19.0667 25.4006 19.28C25.0473 19.4867 24.634 19.59 24.1606 19.59C23.674 19.59 23.234 19.47 22.8406 19.23C22.4473 18.99 22.1373 18.6533 21.9106 18.22C21.684 17.7867 21.5706 17.2933 21.5706 16.74ZM26.2106 16.75C26.2106 16.3367 26.1273 15.9767 25.9606 15.67C25.794 15.3633 25.5673 15.13 25.2806 14.97C25.0006 14.8033 24.6906 14.72 24.3506 14.72C24.0106 14.72 23.7006 14.8 23.4206 14.96C23.1406 15.12 22.9173 15.3533 22.7506 15.66C22.584 15.9667 22.5006 16.3267 22.5006 16.74C22.5006 17.16 22.584 17.5267 22.7506 17.84C22.9173 18.1467 23.1406 18.3833 23.4206 18.55C23.7006 18.71 24.0106 18.79 24.3506 18.79C24.6906 18.79 25.0006 18.71 25.2806 18.55C25.5673 18.3833 25.794 18.1467 25.9606 17.84C26.1273 17.5267 26.2106 17.1633 26.2106 16.75ZM31.3384 13.92C32.0051 13.92 32.5451 14.1233 32.9584 14.53C33.3718 14.93 33.5784 15.51 33.5784 16.27V19.5H32.6784V16.4C32.6784 15.8533 32.5418 15.4367 32.2684 15.15C31.9951 14.8567 31.6218 14.71 31.1484 14.71C30.6684 14.71 30.2851 14.86 29.9984 15.16C29.7184 15.46 29.5784 15.8967 29.5784 16.47V19.5H28.6684V14.02H29.5784V14.8C29.7584 14.52 30.0018 14.3033 30.3084 14.15C30.6218 13.9967 30.9651 13.92 31.3384 13.92ZM37.0049 19.59C36.5849 19.59 36.2083 19.52 35.8749 19.38C35.5416 19.2333 35.2783 19.0333 35.0849 18.78C34.8916 18.52 34.7849 18.2233 34.7649 17.89H35.7049C35.7316 18.1633 35.8583 18.3867 36.0849 18.56C36.3183 18.7333 36.6216 18.82 36.9949 18.82C37.3416 18.82 37.6149 18.7433 37.8149 18.59C38.0149 18.4367 38.1149 18.2433 38.1149 18.01C38.1149 17.77 38.0083 17.5933 37.7949 17.48C37.5816 17.36 37.2516 17.2433 36.8049 17.13C36.3983 17.0233 36.0649 16.9167 35.8049 16.81C35.5516 16.6967 35.3316 16.5333 35.1449 16.32C34.9649 16.1 34.8749 15.8133 34.8749 15.46C34.8749 15.18 34.9583 14.9233 35.1249 14.69C35.2916 14.4567 35.5283 14.2733 35.8349 14.14C36.1416 14 36.4916 13.93 36.8849 13.93C37.4916 13.93 37.9816 14.0833 38.3549 14.39C38.7283 14.6967 38.9283 15.1167 38.9549 15.65H38.0449C38.0249 15.3633 37.9083 15.1333 37.6949 14.96C37.4883 14.7867 37.2083 14.7 36.8549 14.7C36.5283 14.7 36.2683 14.77 36.0749 14.91C35.8816 15.05 35.7849 15.2333 35.7849 15.46C35.7849 15.64 35.8416 15.79 35.9549 15.91C36.0749 16.0233 36.2216 16.1167 36.3949 16.19C36.5749 16.2567 36.8216 16.3333 37.1349 16.42C37.5283 16.5267 37.8483 16.6333 38.0949 16.74C38.3416 16.84 38.5516 16.9933 38.7249 17.2C38.9049 17.4067 38.9983 17.6767 39.0049 18.01C39.0049 18.31 38.9216 18.58 38.7549 18.82C38.5883 19.06 38.3516 19.25 38.0449 19.39C37.7449 19.5233 37.3983 19.59 37.0049 19.59ZM46.8795 13.92C47.3062 13.92 47.6862 14.01 48.0195 14.19C48.3529 14.3633 48.6162 14.6267 48.8095 14.98C49.0029 15.3333 49.0995 15.7633 49.0995 16.27V19.5H48.1995V16.4C48.1995 15.8533 48.0629 15.4367 47.7895 15.15C47.5229 14.8567 47.1595 14.71 46.6995 14.71C46.2262 14.71 45.8495 14.8633 45.5695 15.17C45.2895 15.47 45.1495 15.9067 45.1495 16.48V19.5H44.2495V16.4C44.2495 15.8533 44.1129 15.4367 43.8395 15.15C43.5729 14.8567 43.2095 14.71 42.7495 14.71C42.2762 14.71 41.8995 14.8633 41.6195 15.17C41.3395 15.47 41.1995 15.9067 41.1995 16.48V19.5H40.2895V14.02H41.1995V14.81C41.3795 14.5233 41.6195 14.3033 41.9195 14.15C42.2262 13.9967 42.5629 13.92 42.9295 13.92C43.3895 13.92 43.7962 14.0233 44.1495 14.23C44.5029 14.4367 44.7662 14.74 44.9395 15.14C45.0929 14.7533 45.3462 14.4533 45.6995 14.24C46.0529 14.0267 46.4462 13.92 46.8795 13.92ZM51.0623 13.13C50.8889 13.13 50.7423 13.07 50.6223 12.95C50.5023 12.83 50.4423 12.6833 50.4423 12.51C50.4423 12.3367 50.5023 12.19 50.6223 12.07C50.7423 11.95 50.8889 11.89 51.0623 11.89C51.2289 11.89 51.3689 11.95 51.4823 12.07C51.6023 12.19 51.6623 12.3367 51.6623 12.51C51.6623 12.6833 51.6023 12.83 51.4823 12.95C51.3689 13.07 51.2289 13.13 51.0623 13.13ZM51.5023 14.02V19.5H50.5923V14.02H51.5023ZM54.1632 14.77V18C54.1632 18.2667 54.2199 18.4567 54.3332 18.57C54.4465 18.6767 54.6432 18.73 54.9232 18.73H55.5932V19.5H54.7732C54.2665 19.5 53.8865 19.3833 53.6332 19.15C53.3799 18.9167 53.2532 18.5333 53.2532 18V14.77H52.5432V14.02H53.2532V12.64H54.1632V14.02H55.5932V14.77H54.1632ZM57.8058 14.77V18C57.8058 18.2667 57.8624 18.4567 57.9758 18.57C58.0891 18.6767 58.2858 18.73 58.5658 18.73H59.2358V19.5H58.4158C57.9091 19.5 57.5291 19.3833 57.2758 19.15C57.0224 18.9167 56.8958 18.5333 56.8958 18V14.77H56.1858V14.02H56.8958V12.64H57.8058V14.02H59.2358V14.77H57.8058ZM59.9984 16.74C59.9984 16.18 60.1117 15.69 60.3384 15.27C60.565 14.8433 60.875 14.5133 61.2684 14.28C61.6684 14.0467 62.1117 13.93 62.5984 13.93C63.0784 13.93 63.495 14.0333 63.8484 14.24C64.2017 14.4467 64.465 14.7067 64.6384 15.02V14.02H65.5584V19.5H64.6384V18.48C64.4584 18.8 64.1884 19.0667 63.8284 19.28C63.475 19.4867 63.0617 19.59 62.5884 19.59C62.1017 19.59 61.6617 19.47 61.2684 19.23C60.875 18.99 60.565 18.6533 60.3384 18.22C60.1117 17.7867 59.9984 17.2933 59.9984 16.74ZM64.6384 16.75C64.6384 16.3367 64.555 15.9767 64.3884 15.67C64.2217 15.3633 63.995 15.13 63.7084 14.97C63.4284 14.8033 63.1184 14.72 62.7784 14.72C62.4384 14.72 62.1284 14.8 61.8484 14.96C61.5684 15.12 61.345 15.3533 61.1784 15.66C61.0117 15.9667 60.9284 16.3267 60.9284 16.74C60.9284 17.16 61.0117 17.5267 61.1784 17.84C61.345 18.1467 61.5684 18.3833 61.8484 18.55C62.1284 18.71 62.4384 18.79 62.7784 18.79C63.1184 18.79 63.4284 18.71 63.7084 18.55C63.995 18.3833 64.2217 18.1467 64.3884 17.84C64.555 17.5267 64.6384 17.1633 64.6384 16.75ZM69.7662 13.92C70.4328 13.92 70.9728 14.1233 71.3862 14.53C71.7995 14.93 72.0062 15.51 72.0062 16.27V19.5H71.1062V16.4C71.1062 15.8533 70.9695 15.4367 70.6962 15.15C70.4228 14.8567 70.0495 14.71 69.5762 14.71C69.0962 14.71 68.7128 14.86 68.4262 15.16C68.1462 15.46 68.0062 15.8967 68.0062 16.47V19.5H67.0962V14.02H68.0062V14.8C68.1862 14.52 68.4295 14.3033 68.7362 14.15C69.0495 13.9967 69.3928 13.92 69.7662 13.92ZM73.1527 16.75C73.1527 16.1833 73.266 15.69 73.4927 15.27C73.7193 14.8433 74.0327 14.5133 74.4327 14.28C74.8393 14.0467 75.3027 13.93 75.8227 13.93C76.496 13.93 77.0493 14.0933 77.4827 14.42C77.9227 14.7467 78.2127 15.2 78.3527 15.78H77.3727C77.2793 15.4467 77.096 15.1833 76.8227 14.99C76.556 14.7967 76.2227 14.7 75.8227 14.7C75.3027 14.7 74.8827 14.88 74.5627 15.24C74.2427 15.5933 74.0827 16.0967 74.0827 16.75C74.0827 17.41 74.2427 17.92 74.5627 18.28C74.8827 18.64 75.3027 18.82 75.8227 18.82C76.2227 18.82 76.556 18.7267 76.8227 18.54C77.0893 18.3533 77.2727 18.0867 77.3727 17.74H78.3527C78.206 18.3 77.9127 18.75 77.4727 19.09C77.0327 19.4233 76.4827 19.59 75.8227 19.59C75.3027 19.59 74.8393 19.4733 74.4327 19.24C74.0327 19.0067 73.7193 18.6767 73.4927 18.25C73.266 17.8233 73.1527 17.3233 73.1527 16.75ZM84.5669 16.55C84.5669 16.7233 84.5569 16.9067 84.5369 17.1H80.1569C80.1902 17.64 80.3735 18.0633 80.7069 18.37C81.0469 18.67 81.4569 18.82 81.9369 18.82C82.3302 18.82 82.6569 18.73 82.9169 18.55C83.1835 18.3633 83.3702 18.1167 83.4769 17.81H84.4569C84.3102 18.3367 84.0169 18.7667 83.5769 19.1C83.1369 19.4267 82.5902 19.59 81.9369 19.59C81.4169 19.59 80.9502 19.4733 80.5369 19.24C80.1302 19.0067 79.8102 18.6767 79.5769 18.25C79.3435 17.8167 79.2269 17.3167 79.2269 16.75C79.2269 16.1833 79.3402 15.6867 79.5669 15.26C79.7935 14.8333 80.1102 14.5067 80.5169 14.28C80.9302 14.0467 81.4035 13.93 81.9369 13.93C82.4569 13.93 82.9169 14.0433 83.3169 14.27C83.7169 14.4967 84.0235 14.81 84.2369 15.21C84.4569 15.6033 84.5669 16.05 84.5669 16.55ZM83.6269 16.36C83.6269 16.0133 83.5502 15.7167 83.3969 15.47C83.2435 15.2167 83.0335 15.0267 82.7669 14.9C82.5069 14.7667 82.2169 14.7 81.8969 14.7C81.4369 14.7 81.0435 14.8467 80.7169 15.14C80.3969 15.4333 80.2135 15.84 80.1669 16.36H83.6269Z" fill="#808080"/>
<path d="M14.424 32.124C14.504 32.524 14.676 32.828 14.94 33.036C15.204 33.244 15.56 33.348 16.008 33.348C16.576 33.348 16.992 33.124 17.256 32.676C17.52 32.228 17.652 31.464 17.652 30.384C17.46 30.656 17.188 30.868 16.836 31.02C16.492 31.164 16.116 31.236 15.708 31.236C15.188 31.236 14.716 31.132 14.292 30.924C13.868 30.708 13.532 30.392 13.284 29.976C13.044 29.552 12.924 29.04 12.924 28.44C12.924 27.56 13.18 26.86 13.692 26.34C14.212 25.812 14.924 25.548 15.828 25.548C16.916 25.548 17.688 25.912 18.144 26.64C18.608 27.36 18.84 28.468 18.84 29.964C18.84 30.996 18.752 31.84 18.576 32.496C18.408 33.152 18.112 33.648 17.688 33.984C17.264 34.32 16.676 34.488 15.924 34.488C15.068 34.488 14.408 34.264 13.944 33.816C13.48 33.368 13.22 32.804 13.164 32.124H14.424ZM15.948 30.084C16.428 30.084 16.804 29.936 17.076 29.64C17.356 29.336 17.496 28.936 17.496 28.44C17.496 27.888 17.348 27.46 17.052 27.156C16.764 26.844 16.368 26.688 15.864 26.688C15.36 26.688 14.96 26.848 14.664 27.168C14.376 27.48 14.232 27.892 14.232 28.404C14.232 28.892 14.372 29.296 14.652 29.616C14.94 29.928 15.372 30.084 15.948 30.084ZM25.0412 27.78C24.9532 27.412 24.7932 27.136 24.5612 26.952C24.3292 26.768 24.0052 26.676 23.5892 26.676C22.9572 26.676 22.4852 26.92 22.1732 27.408C21.8612 27.888 21.6972 28.688 21.6812 29.808C21.8892 29.456 22.1932 29.184 22.5932 28.992C22.9932 28.8 23.4252 28.704 23.8892 28.704C24.4172 28.704 24.8812 28.82 25.2812 29.052C25.6892 29.276 26.0052 29.604 26.2292 30.036C26.4612 30.468 26.5772 30.984 26.5772 31.584C26.5772 32.144 26.4652 32.644 26.2412 33.084C26.0252 33.524 25.7012 33.872 25.2692 34.128C24.8372 34.376 24.3172 34.5 23.7092 34.5C22.8852 34.5 22.2372 34.32 21.7652 33.96C21.3012 33.592 20.9732 33.076 20.7812 32.412C20.5972 31.748 20.5052 30.92 20.5052 29.928C20.5052 27 21.5372 25.536 23.6012 25.536C24.4012 25.536 25.0292 25.752 25.4852 26.184C25.9492 26.616 26.2212 27.148 26.3012 27.78H25.0412ZM23.5892 29.856C23.1012 29.856 22.6852 30.004 22.3412 30.3C22.0052 30.588 21.8372 31.008 21.8372 31.56C21.8372 32.112 21.9932 32.552 22.3052 32.88C22.6252 33.2 23.0692 33.36 23.6372 33.36C24.1412 33.36 24.5372 33.204 24.8252 32.892C25.1212 32.58 25.2692 32.164 25.2692 31.644C25.2692 31.1 25.1252 30.668 24.8372 30.348C24.5572 30.02 24.1412 29.856 23.5892 29.856ZM27.8204 27.864C27.8204 27.28 27.9884 26.824 28.3244 26.496C28.6684 26.16 29.1084 25.992 29.6444 25.992C30.1804 25.992 30.6164 26.16 30.9524 26.496C31.2964 26.824 31.4684 27.28 31.4684 27.864C31.4684 28.448 31.2964 28.908 30.9524 29.244C30.6164 29.58 30.1804 29.748 29.6444 29.748C29.1084 29.748 28.6684 29.58 28.3244 29.244C27.9884 28.908 27.8204 28.448 27.8204 27.864ZM35.1404 26.148L30.3524 34.5H29.0084L33.7964 26.148H35.1404ZM29.6444 26.82C29.1404 26.82 28.8884 27.168 28.8884 27.864C28.8884 28.568 29.1404 28.92 29.6444 28.92C29.8844 28.92 30.0684 28.836 30.1964 28.668C30.3324 28.492 30.4004 28.224 30.4004 27.864C30.4004 27.168 30.1484 26.82 29.6444 26.82ZM32.7044 32.772C32.7044 32.188 32.8724 31.732 33.2084 31.404C33.5524 31.068 33.9924 30.9 34.5284 30.9C35.0564 30.9 35.4884 31.068 35.8244 31.404C36.1684 31.732 36.3404 32.188 36.3404 32.772C36.3404 33.356 36.1684 33.816 35.8244 34.152C35.4884 34.488 35.0564 34.656 34.5284 34.656C33.9924 34.656 33.5524 34.488 33.2084 34.152C32.8724 33.816 32.7044 33.356 32.7044 32.772ZM34.5164 31.728C34.0124 31.728 33.7604 32.076 33.7604 32.772C33.7604 33.468 34.0124 33.816 34.5164 33.816C35.0204 33.816 35.2724 33.468 35.2724 32.772C35.2724 32.076 35.0204 31.728 34.5164 31.728Z" fill="#1A1A1A"/>
<rect x="41" y="27" width="67" height="7" rx="3.5" fill="#46BEAB" fill-opacity="0.15"/>
<rect x="41" y="27" width="54" height="7" rx="3.5" fill="#00A79D"/>
</svg>
