<svg width="120" height="48" viewBox="0 0 120 48" fill="none" xmlns="http://www.w3.org/2000/svg">
<rect width="120" height="48" rx="10" fill="#E51717" fill-opacity="0.15"/>
<path d="M21.53 12.53L19.51 19.5H18.49L16.87 13.89L15.19 19.5L14.18 19.51L12.23 12.53H13.2L14.72 18.44L16.4 12.53H17.42L19.02 18.42L20.55 12.53H21.53ZM22.1859 16.74C22.1859 16.18 22.2992 15.69 22.5259 15.27C22.7525 14.8433 23.0625 14.5133 23.4559 14.28C23.8559 14.0467 24.2992 13.93 24.7859 13.93C25.2659 13.93 25.6825 14.0333 26.0359 14.24C26.3892 14.4467 26.6525 14.7067 26.8259 15.02V14.02H27.7459V19.5H26.8259V18.48C26.6459 18.8 26.3759 19.0667 26.0159 19.28C25.6625 19.4867 25.2492 19.59 24.7759 19.59C24.2892 19.59 23.8492 19.47 23.4559 19.23C23.0625 18.99 22.7525 18.6533 22.5259 18.22C22.2992 17.7867 22.1859 17.2933 22.1859 16.74ZM26.8259 16.75C26.8259 16.3367 26.7425 15.9767 26.5759 15.67C26.4092 15.3633 26.1825 15.13 25.8959 14.97C25.6159 14.8033 25.3059 14.72 24.9659 14.72C24.6259 14.72 24.3159 14.8 24.0359 14.96C23.7559 15.12 23.5325 15.3533 23.3659 15.66C23.1992 15.9667 23.1159 16.3267 23.1159 16.74C23.1159 17.16 23.1992 17.5267 23.3659 17.84C23.5325 18.1467 23.7559 18.3833 24.0359 18.55C24.3159 18.71 24.6259 18.79 24.9659 18.79C25.3059 18.79 25.6159 18.71 25.8959 18.55C26.1825 18.3833 26.4092 18.1467 26.5759 17.84C26.7425 17.5267 26.8259 17.1633 26.8259 16.75ZM30.3937 14.77V18C30.3937 18.2667 30.4503 18.4567 30.5637 18.57C30.677 18.6767 30.8737 18.73 31.1537 18.73H31.8237V19.5H31.0037C30.497 19.5 30.117 19.3833 29.8637 19.15C29.6103 18.9167 29.4837 18.5333 29.4837 18V14.77H28.7737V14.02H29.4837V12.64H30.3937V14.02H31.8237V14.77H30.3937ZM37.9263 16.55C37.9263 16.7233 37.9163 16.9067 37.8963 17.1H33.5163C33.5496 17.64 33.7329 18.0633 34.0663 18.37C34.4063 18.67 34.8163 18.82 35.2963 18.82C35.6896 18.82 36.0163 18.73 36.2763 18.55C36.5429 18.3633 36.7296 18.1167 36.8363 17.81H37.8163C37.6696 18.3367 37.3763 18.7667 36.9363 19.1C36.4963 19.4267 35.9496 19.59 35.2963 19.59C34.7763 19.59 34.3096 19.4733 33.8963 19.24C33.4896 19.0067 33.1696 18.6767 32.9363 18.25C32.7029 17.8167 32.5863 17.3167 32.5863 16.75C32.5863 16.1833 32.6996 15.6867 32.9263 15.26C33.1529 14.8333 33.4696 14.5067 33.8763 14.28C34.2896 14.0467 34.7629 13.93 35.2963 13.93C35.8163 13.93 36.2763 14.0433 36.6763 14.27C37.0763 14.4967 37.3829 14.81 37.5963 15.21C37.8163 15.6033 37.9263 16.05 37.9263 16.55ZM36.9863 16.36C36.9863 16.0133 36.9096 15.7167 36.7563 15.47C36.6029 15.2167 36.3929 15.0267 36.1263 14.9C35.8663 14.7667 35.5763 14.7 35.2563 14.7C34.7963 14.7 34.4029 14.8467 34.0763 15.14C33.7563 15.4333 33.5729 15.84 33.5263 16.36H36.9863ZM40.0374 14.91C40.1974 14.5967 40.4241 14.3533 40.7174 14.18C41.0174 14.0067 41.3808 13.92 41.8074 13.92V14.86H41.5674C40.5474 14.86 40.0374 15.4133 40.0374 16.52V19.5H39.1274V14.02H40.0374V14.91Z" fill="#808080"/>
<path d="M19.752 34.5H18.384L14.268 28.272V34.5H12.9V26.148H14.268L18.384 32.364V26.148H19.752V34.5ZM24.4164 34.608C23.7924 34.608 23.2284 34.468 22.7244 34.188C22.2204 33.9 21.8244 33.5 21.5364 32.988C21.2484 32.468 21.1044 31.868 21.1044 31.188C21.1044 30.516 21.2524 29.92 21.5484 29.4C21.8444 28.88 22.2484 28.48 22.7604 28.2C23.2724 27.92 23.8444 27.78 24.4764 27.78C25.1084 27.78 25.6804 27.92 26.1924 28.2C26.7044 28.48 27.1084 28.88 27.4044 29.4C27.7004 29.92 27.8484 30.516 27.8484 31.188C27.8484 31.86 27.6964 32.456 27.3924 32.976C27.0884 33.496 26.6724 33.9 26.1444 34.188C25.6244 34.468 25.0484 34.608 24.4164 34.608ZM24.4164 33.42C24.7684 33.42 25.0964 33.336 25.4004 33.168C25.7124 33 25.9644 32.748 26.1564 32.412C26.3484 32.076 26.4444 31.668 26.4444 31.188C26.4444 30.708 26.3524 30.304 26.1684 29.976C25.9844 29.64 25.7404 29.388 25.4364 29.22C25.1324 29.052 24.8044 28.968 24.4524 28.968C24.1004 28.968 23.7724 29.052 23.4684 29.22C23.1724 29.388 22.9364 29.64 22.7604 29.976C22.5844 30.304 22.4964 30.708 22.4964 31.188C22.4964 31.9 22.6764 32.452 23.0364 32.844C23.4044 33.228 23.8644 33.42 24.4164 33.42ZM41.198 27.888L39.146 34.5H37.706L36.374 29.616L35.042 34.5H33.602L31.538 27.888H32.93L34.31 33.204L35.714 27.888H37.142L38.486 33.18L39.854 27.888H41.198ZM41.7643 31.164C41.7643 30.5 41.9003 29.912 42.1723 29.4C42.4523 28.888 42.8283 28.492 43.3003 28.212C43.7803 27.924 44.3083 27.78 44.8843 27.78C45.4043 27.78 45.8563 27.884 46.2403 28.092C46.6323 28.292 46.9443 28.544 47.1763 28.848V27.888H48.5563V34.5H47.1763V33.516C46.9443 33.828 46.6283 34.088 46.2283 34.296C45.8283 34.504 45.3723 34.608 44.8603 34.608C44.2923 34.608 43.7723 34.464 43.3003 34.176C42.8283 33.88 42.4523 33.472 42.1723 32.952C41.9003 32.424 41.7643 31.828 41.7643 31.164ZM47.1763 31.188C47.1763 30.732 47.0803 30.336 46.8883 30C46.7043 29.664 46.4603 29.408 46.1563 29.232C45.8523 29.056 45.5243 28.968 45.1723 28.968C44.8203 28.968 44.4923 29.056 44.1883 29.232C43.8843 29.4 43.6363 29.652 43.4443 29.988C43.2603 30.316 43.1683 30.708 43.1683 31.164C43.1683 31.62 43.2603 32.02 43.4443 32.364C43.6363 32.708 43.8843 32.972 44.1883 33.156C44.5003 33.332 44.8283 33.42 45.1723 33.42C45.5243 33.42 45.8523 33.332 46.1563 33.156C46.4603 32.98 46.7043 32.724 46.8883 32.388C47.0803 32.044 47.1763 31.644 47.1763 31.188ZM51.9491 29.004V32.664C51.9491 32.912 52.0051 33.092 52.1171 33.204C52.2371 33.308 52.4371 33.36 52.7171 33.36H53.5571V34.5H52.4771C51.8611 34.5 51.3891 34.356 51.0611 34.068C50.7331 33.78 50.5691 33.312 50.5691 32.664V29.004H49.7891V27.888H50.5691V26.244H51.9491V27.888H53.5571V29.004H51.9491ZM60.878 31.032C60.878 31.28 60.862 31.504 60.83 31.704H55.778C55.818 32.232 56.014 32.656 56.366 32.976C56.718 33.296 57.15 33.456 57.662 33.456C58.398 33.456 58.918 33.148 59.222 32.532H60.698C60.498 33.14 60.134 33.64 59.606 34.032C59.086 34.416 58.438 34.608 57.662 34.608C57.03 34.608 56.462 34.468 55.958 34.188C55.462 33.9 55.07 33.5 54.782 32.988C54.502 32.468 54.362 31.868 54.362 31.188C54.362 30.508 54.498 29.912 54.77 29.4C55.05 28.88 55.438 28.48 55.934 28.2C56.438 27.92 57.014 27.78 57.662 27.78C58.286 27.78 58.842 27.916 59.33 28.188C59.818 28.46 60.198 28.844 60.47 29.34C60.742 29.828 60.878 30.392 60.878 31.032ZM59.45 30.6C59.442 30.096 59.262 29.692 58.91 29.388C58.558 29.084 58.122 28.932 57.602 28.932C57.13 28.932 56.726 29.084 56.39 29.388C56.054 29.684 55.854 30.088 55.79 30.6H59.45ZM63.5922 28.848C63.7922 28.512 64.0562 28.252 64.3842 28.068C64.7202 27.876 65.1162 27.78 65.5722 27.78V29.196H65.2242C64.6882 29.196 64.2802 29.332 64.0002 29.604C63.7282 29.876 63.5922 30.348 63.5922 31.02V34.5H62.2242V27.888H63.5922V28.848Z" fill="#1A1A1A"/>
<path d="M89.4324 18.8429L85.3936 14.8041L86.8078 13.3899L106.607 33.1888L105.193 34.603L102.154 31.5642C98.6255 34.8738 93.0816 34.8058 89.6362 31.3604C86.1908 27.915 86.1228 22.3711 89.4324 18.8429ZM92.2433 16.0254L96.0002 12.2686L102.364 18.6325C104.95 21.2183 105.633 24.9859 104.414 28.1965L92.2433 16.0254Z" fill="#E51717"/>
</svg>
