<svg width="120" height="48" viewBox="0 0 120 48" fill="none" xmlns="http://www.w3.org/2000/svg">
<rect width="120" height="48" rx="10" fill="black" fill-opacity="0.08"/>
<path d="M21.53 12.53L19.51 19.5H18.49L16.87 13.89L15.19 19.5L14.18 19.51L12.23 12.53H13.2L14.72 18.44L16.4 12.53H17.42L19.02 18.42L20.55 12.53H21.53ZM22.1859 16.74C22.1859 16.18 22.2992 15.69 22.5259 15.27C22.7525 14.8433 23.0625 14.5133 23.4559 14.28C23.8559 14.0467 24.2992 13.93 24.7859 13.93C25.2659 13.93 25.6825 14.0333 26.0359 14.24C26.3892 14.4467 26.6525 14.7067 26.8259 15.02V14.02H27.7459V19.5H26.8259V18.48C26.6459 18.8 26.3759 19.0667 26.0159 19.28C25.6625 19.4867 25.2492 19.59 24.7759 19.59C24.2892 19.59 23.8492 19.47 23.4559 19.23C23.0625 18.99 22.7525 18.6533 22.5259 18.22C22.2992 17.7867 22.1859 17.2933 22.1859 16.74ZM26.8259 16.75C26.8259 16.3367 26.7425 15.9767 26.5759 15.67C26.4092 15.3633 26.1825 15.13 25.8959 14.97C25.6159 14.8033 25.3059 14.72 24.9659 14.72C24.6259 14.72 24.3159 14.8 24.0359 14.96C23.7559 15.12 23.5325 15.3533 23.3659 15.66C23.1992 15.9667 23.1159 16.3267 23.1159 16.74C23.1159 17.16 23.1992 17.5267 23.3659 17.84C23.5325 18.1467 23.7559 18.3833 24.0359 18.55C24.3159 18.71 24.6259 18.79 24.9659 18.79C25.3059 18.79 25.6159 18.71 25.8959 18.55C26.1825 18.3833 26.4092 18.1467 26.5759 17.84C26.7425 17.5267 26.8259 17.1633 26.8259 16.75ZM30.3937 14.77V18C30.3937 18.2667 30.4503 18.4567 30.5637 18.57C30.677 18.6767 30.8737 18.73 31.1537 18.73H31.8237V19.5H31.0037C30.497 19.5 30.117 19.3833 29.8637 19.15C29.6103 18.9167 29.4837 18.5333 29.4837 18V14.77H28.7737V14.02H29.4837V12.64H30.3937V14.02H31.8237V14.77H30.3937ZM37.9263 16.55C37.9263 16.7233 37.9163 16.9067 37.8963 17.1H33.5163C33.5496 17.64 33.7329 18.0633 34.0663 18.37C34.4063 18.67 34.8163 18.82 35.2963 18.82C35.6896 18.82 36.0163 18.73 36.2763 18.55C36.5429 18.3633 36.7296 18.1167 36.8363 17.81H37.8163C37.6696 18.3367 37.3763 18.7667 36.9363 19.1C36.4963 19.4267 35.9496 19.59 35.2963 19.59C34.7763 19.59 34.3096 19.4733 33.8963 19.24C33.4896 19.0067 33.1696 18.6767 32.9363 18.25C32.7029 17.8167 32.5863 17.3167 32.5863 16.75C32.5863 16.1833 32.6996 15.6867 32.9263 15.26C33.1529 14.8333 33.4696 14.5067 33.8763 14.28C34.2896 14.0467 34.7629 13.93 35.2963 13.93C35.8163 13.93 36.2763 14.0433 36.6763 14.27C37.0763 14.4967 37.3829 14.81 37.5963 15.21C37.8163 15.6033 37.9263 16.05 37.9263 16.55ZM36.9863 16.36C36.9863 16.0133 36.9096 15.7167 36.7563 15.47C36.6029 15.2167 36.3929 15.0267 36.1263 14.9C35.8663 14.7667 35.5763 14.7 35.2563 14.7C34.7963 14.7 34.4029 14.8467 34.0763 15.14C33.7563 15.4333 33.5729 15.84 33.5263 16.36H36.9863ZM40.0374 14.91C40.1974 14.5967 40.4241 14.3533 40.7174 14.18C41.0174 14.0067 41.3808 13.92 41.8074 13.92V14.86H41.5674C40.5474 14.86 40.0374 15.4133 40.0374 16.52V19.5H39.1274V14.02H40.0374V14.91Z" fill="#808080"/>
<path d="M17.976 29.58V30.732H13.044V29.58H17.976Z" fill="#1A1A1A"/>
<path d="M89.636 18.6325L96 12.2686L102.364 18.6325C105.879 22.1472 105.879 27.8457 102.364 31.3604C98.8492 34.8751 93.1508 34.8751 89.636 31.3604C86.1213 27.8457 86.1213 22.1472 89.636 18.6325Z" fill="#B3B3B3"/>
</svg>
