<svg width="120" height="48" viewBox="0 0 120 48" fill="none" xmlns="http://www.w3.org/2000/svg">
<rect width="120" height="48" rx="10" fill="#46BEAB" fill-opacity="0.08"/>
<path d="M21.53 12.53L19.51 19.5H18.49L16.87 13.89L15.19 19.5L14.18 19.51L12.23 12.53H13.2L14.72 18.44L16.4 12.53H17.42L19.02 18.42L20.55 12.53H21.53ZM22.1859 16.74C22.1859 16.18 22.2992 15.69 22.5259 15.27C22.7525 14.8433 23.0625 14.5133 23.4559 14.28C23.8559 14.0467 24.2992 13.93 24.7859 13.93C25.2659 13.93 25.6825 14.0333 26.0359 14.24C26.3892 14.4467 26.6525 14.7067 26.8259 15.02V14.02H27.7459V19.5H26.8259V18.48C26.6459 18.8 26.3759 19.0667 26.0159 19.28C25.6625 19.4867 25.2492 19.59 24.7759 19.59C24.2892 19.59 23.8492 19.47 23.4559 19.23C23.0625 18.99 22.7525 18.6533 22.5259 18.22C22.2992 17.7867 22.1859 17.2933 22.1859 16.74ZM26.8259 16.75C26.8259 16.3367 26.7425 15.9767 26.5759 15.67C26.4092 15.3633 26.1825 15.13 25.8959 14.97C25.6159 14.8033 25.3059 14.72 24.9659 14.72C24.6259 14.72 24.3159 14.8 24.0359 14.96C23.7559 15.12 23.5325 15.3533 23.3659 15.66C23.1992 15.9667 23.1159 16.3267 23.1159 16.74C23.1159 17.16 23.1992 17.5267 23.3659 17.84C23.5325 18.1467 23.7559 18.3833 24.0359 18.55C24.3159 18.71 24.6259 18.79 24.9659 18.79C25.3059 18.79 25.6159 18.71 25.8959 18.55C26.1825 18.3833 26.4092 18.1467 26.5759 17.84C26.7425 17.5267 26.8259 17.1633 26.8259 16.75ZM30.3937 14.77V18C30.3937 18.2667 30.4503 18.4567 30.5637 18.57C30.677 18.6767 30.8737 18.73 31.1537 18.73H31.8237V19.5H31.0037C30.497 19.5 30.117 19.3833 29.8637 19.15C29.6103 18.9167 29.4837 18.5333 29.4837 18V14.77H28.7737V14.02H29.4837V12.64H30.3937V14.02H31.8237V14.77H30.3937ZM37.9263 16.55C37.9263 16.7233 37.9163 16.9067 37.8963 17.1H33.5163C33.5496 17.64 33.7329 18.0633 34.0663 18.37C34.4063 18.67 34.8163 18.82 35.2963 18.82C35.6896 18.82 36.0163 18.73 36.2763 18.55C36.5429 18.3633 36.7296 18.1167 36.8363 17.81H37.8163C37.6696 18.3367 37.3763 18.7667 36.9363 19.1C36.4963 19.4267 35.9496 19.59 35.2963 19.59C34.7763 19.59 34.3096 19.4733 33.8963 19.24C33.4896 19.0067 33.1696 18.6767 32.9363 18.25C32.7029 17.8167 32.5863 17.3167 32.5863 16.75C32.5863 16.1833 32.6996 15.6867 32.9263 15.26C33.1529 14.8333 33.4696 14.5067 33.8763 14.28C34.2896 14.0467 34.7629 13.93 35.2963 13.93C35.8163 13.93 36.2763 14.0433 36.6763 14.27C37.0763 14.4967 37.3829 14.81 37.5963 15.21C37.8163 15.6033 37.9263 16.05 37.9263 16.55ZM36.9863 16.36C36.9863 16.0133 36.9096 15.7167 36.7563 15.47C36.6029 15.2167 36.3929 15.0267 36.1263 14.9C35.8663 14.7667 35.5763 14.7 35.2563 14.7C34.7963 14.7 34.4029 14.8467 34.0763 15.14C33.7563 15.4333 33.5729 15.84 33.5263 16.36H36.9863ZM40.0374 14.91C40.1974 14.5967 40.4241 14.3533 40.7174 14.18C41.0174 14.0067 41.3808 13.92 41.8074 13.92V14.86H41.5674C40.5474 14.86 40.0374 15.4133 40.0374 16.52V19.5H39.1274V14.02H40.0374V14.91Z" fill="#808080"/>
<path d="M19.752 34.5H18.384L14.268 28.272V34.5H12.9V26.148H14.268L18.384 32.364V26.148H19.752V34.5ZM24.4164 34.608C23.7924 34.608 23.2284 34.468 22.7244 34.188C22.2204 33.9 21.8244 33.5 21.5364 32.988C21.2484 32.468 21.1044 31.868 21.1044 31.188C21.1044 30.516 21.2524 29.92 21.5484 29.4C21.8444 28.88 22.2484 28.48 22.7604 28.2C23.2724 27.92 23.8444 27.78 24.4764 27.78C25.1084 27.78 25.6804 27.92 26.1924 28.2C26.7044 28.48 27.1084 28.88 27.4044 29.4C27.7004 29.92 27.8484 30.516 27.8484 31.188C27.8484 31.86 27.6964 32.456 27.3924 32.976C27.0884 33.496 26.6724 33.9 26.1444 34.188C25.6244 34.468 25.0484 34.608 24.4164 34.608ZM24.4164 33.42C24.7684 33.42 25.0964 33.336 25.4004 33.168C25.7124 33 25.9644 32.748 26.1564 32.412C26.3484 32.076 26.4444 31.668 26.4444 31.188C26.4444 30.708 26.3524 30.304 26.1684 29.976C25.9844 29.64 25.7404 29.388 25.4364 29.22C25.1324 29.052 24.8044 28.968 24.4524 28.968C24.1004 28.968 23.7724 29.052 23.4684 29.22C23.1724 29.388 22.9364 29.64 22.7604 29.976C22.5844 30.304 22.4964 30.708 22.4964 31.188C22.4964 31.9 22.6764 32.452 23.0364 32.844C23.4044 33.228 23.8644 33.42 24.4164 33.42ZM30.5688 28.848C30.7688 28.512 31.0328 28.252 31.3608 28.068C31.6968 27.876 32.0928 27.78 32.5488 27.78V29.196H32.2008C31.6648 29.196 31.2568 29.332 30.9768 29.604C30.7048 29.876 30.5688 30.348 30.5688 31.02V34.5H29.2008V27.888H30.5688V28.848ZM41.8103 27.78C42.3303 27.78 42.7943 27.888 43.2023 28.104C43.6183 28.32 43.9423 28.64 44.1743 29.064C44.4143 29.488 44.5343 30 44.5343 30.6V34.5H43.1783V30.804C43.1783 30.212 43.0303 29.76 42.7343 29.448C42.4383 29.128 42.0343 28.968 41.5223 28.968C41.0103 28.968 40.6023 29.128 40.2983 29.448C40.0023 29.76 39.8543 30.212 39.8543 30.804V34.5H38.4983V30.804C38.4983 30.212 38.3503 29.76 38.0543 29.448C37.7583 29.128 37.3543 28.968 36.8423 28.968C36.3303 28.968 35.9223 29.128 35.6183 29.448C35.3223 29.76 35.1743 30.212 35.1743 30.804V34.5H33.8063V27.888H35.1743V28.644C35.3983 28.372 35.6823 28.16 36.0263 28.008C36.3703 27.856 36.7383 27.78 37.1303 27.78C37.6583 27.78 38.1303 27.892 38.5463 28.116C38.9623 28.34 39.2823 28.664 39.5063 29.088C39.7063 28.688 40.0183 28.372 40.4423 28.14C40.8663 27.9 41.3223 27.78 41.8103 27.78ZM45.819 31.164C45.819 30.5 45.955 29.912 46.227 29.4C46.507 28.888 46.883 28.492 47.355 28.212C47.835 27.924 48.363 27.78 48.939 27.78C49.459 27.78 49.911 27.884 50.295 28.092C50.687 28.292 50.999 28.544 51.231 28.848V27.888H52.611V34.5H51.231V33.516C50.999 33.828 50.683 34.088 50.283 34.296C49.883 34.504 49.427 34.608 48.915 34.608C48.347 34.608 47.827 34.464 47.355 34.176C46.883 33.88 46.507 33.472 46.227 32.952C45.955 32.424 45.819 31.828 45.819 31.164ZM51.231 31.188C51.231 30.732 51.135 30.336 50.943 30C50.759 29.664 50.515 29.408 50.211 29.232C49.907 29.056 49.579 28.968 49.227 28.968C48.875 28.968 48.547 29.056 48.243 29.232C47.939 29.4 47.691 29.652 47.499 29.988C47.315 30.316 47.223 30.708 47.223 31.164C47.223 31.62 47.315 32.02 47.499 32.364C47.691 32.708 47.939 32.972 48.243 33.156C48.555 33.332 48.883 33.42 49.227 33.42C49.579 33.42 49.907 33.332 50.211 33.156C50.515 32.98 50.759 32.724 50.943 32.388C51.135 32.044 51.231 31.644 51.231 31.188ZM55.7758 25.62V34.5H54.4078V25.62H55.7758Z" fill="#1A1A1A"/>
<path d="M89.636 18.6325L96 12.2686L102.364 18.6325C105.879 22.1472 105.879 27.8457 102.364 31.3604C98.8492 34.8751 93.1508 34.8751 89.636 31.3604C86.1213 27.8457 86.1213 22.1472 89.636 18.6325Z" fill="#00A79D"/>
</svg>
