<svg width="30" height="24" viewBox="0 0 30 24" fill="none" xmlns="http://www.w3.org/2000/svg">
<rect x="0.5" y="0.5" width="29" height="23" rx="4.5" fill="#F2F2F2"/>
<rect x="0.5" y="0.5" width="29" height="23" rx="4.5" stroke="#E6E6E6"/>
<path d="M18.2994 13.6499L17.4744 12.825L18.2994 12C19.2106 11.0888 19.2106 9.61141 18.2994 8.70018C17.3881 7.78896 15.9107 7.78896 14.9995 8.70018L14.1746 9.52514L13.3496 8.70018L14.1746 7.87523C15.5414 6.50839 17.7575 6.50839 19.1243 7.87523C20.4911 9.24206 20.4911 11.4582 19.1243 12.825L18.2994 13.6499ZM16.6494 15.2999L15.8245 16.1248C14.4577 17.4916 12.2416 17.4916 10.8747 16.1248C9.5079 14.758 9.5079 12.5419 10.8747 11.1751L11.6997 10.3501L12.5246 11.1751L11.6997 12C10.7885 12.9112 10.7885 14.3887 11.6997 15.2999C12.6109 16.211 14.0883 16.211 14.9995 15.2999L15.8245 14.4749L16.6494 15.2999ZM16.6494 9.52514L17.4744 10.3501L13.3496 14.4749L12.5246 13.6499L16.6494 9.52514Z" fill="#808080"/>
</svg>
