<svg width="30" height="24" viewBox="0 0 30 24" fill="none" xmlns="http://www.w3.org/2000/svg">
<rect x="0.5" y="0.5" width="29" height="23" rx="4.5" fill="#F2F2F2"/>
<rect x="0.5" y="0.5" width="29" height="23" rx="4.5" stroke="#E6E6E6"/>
<path d="M11.0832 8.49984V6.74984C11.0832 6.42767 11.3444 6.1665 11.6666 6.1665H18.6666C18.9887 6.1665 19.2499 6.42767 19.2499 6.74984V14.9165C19.2499 15.2387 18.9887 15.4998 18.6666 15.4998H16.9166V17.2493C16.9166 17.5718 16.6541 17.8332 16.3293 17.8332H9.33722C9.01284 17.8332 8.75 17.5738 8.75 17.2493L8.75152 9.08368C8.75157 8.76123 9.01404 8.49984 9.33883 8.49984H11.0832ZM9.91808 9.6665L9.91678 16.6665H15.7499V9.6665H9.91808ZM12.2499 8.49984H16.9166V14.3332H18.0832V7.33317H12.2499V8.49984Z" fill="#808080"/>
</svg>
