<svg width="30" height="24" viewBox="0 0 30 24" fill="none" xmlns="http://www.w3.org/2000/svg">
<rect x="0.5" y="0.5" width="29" height="23" rx="4.5" fill="#F2F2F2"/>
<rect x="0.5" y="0.5" width="29" height="23" rx="4.5" stroke="#E6E6E6"/>
<path d="M17.917 8.49984H20.8337V9.6665H19.667V17.2498C19.667 17.572 19.4058 17.8332 19.0837 17.8332H10.917C10.5948 17.8332 10.3337 17.572 10.3337 17.2498V9.6665H9.16699V8.49984H12.0837V6.74984C12.0837 6.42767 12.3448 6.1665 12.667 6.1665H17.3337C17.6558 6.1665 17.917 6.42767 17.917 6.74984V8.49984ZM18.5003 9.6665H11.5003V16.6665H18.5003V9.6665ZM13.2503 11.4165H14.417V14.9165H13.2503V11.4165ZM15.5837 11.4165H16.7503V14.9165H15.5837V11.4165ZM13.2503 7.33317V8.49984H16.7503V7.33317H13.2503Z" fill="#808080"/>
</svg>
