<?xml version="1.0" encoding="UTF-8" standalone="no"?>
<svg
   width="20"
   height="20"
   viewBox="0 0 20 20"
   fill="none"
   version="1.1"
   id="svg1"
   sodipodi:docname="Property 1=sent - Copy.svg"
   inkscape:version="1.3 (0e150ed6c4, 2023-07-21)"
   xmlns:inkscape="http://www.inkscape.org/namespaces/inkscape"
   xmlns:sodipodi="http://sodipodi.sourceforge.net/DTD/sodipodi-0.dtd"
   xmlns="http://www.w3.org/2000/svg"
   xmlns:svg="http://www.w3.org/2000/svg">
  <sodipodi:namedview
     id="namedview1"
     pagecolor="#505050"
     bordercolor="#ffffff"
     borderopacity="1"
     inkscape:showpageshadow="0"
     inkscape:pageopacity="0"
     inkscape:pagecheckerboard="1"
     inkscape:deskcolor="#505050"
     inkscape:zoom="13.240574"
     inkscape:cx="-1.0951186"
     inkscape:cy="-5.1734915"
     inkscape:window-width="1920"
     inkscape:window-height="992"
     inkscape:window-x="1911"
     inkscape:window-y="-9"
     inkscape:window-maximized="1"
     inkscape:current-layer="svg1" />
  <path
     d="M 10,0 C 15.52,0 20,4.48 20,10 20,15.52 15.52,20 10,20 4.48,20 0,15.52 0,10 0,4.48 4.48,0 10,0 Z m 0,9 H 6 v 2 h 4 v 3 l 4,-4 -4,-4 z"
     fill="#177ee5"
     id="path1" />
  <defs
     id="defs1">
    <clipPath
       id="clip0_297_16852">
      <rect
         width="20"
         height="20"
         fill="#ffffff"
         id="rect1"
         x="0"
         y="0" />
    </clipPath>
  </defs>
  <path
     d="m 10,0.476191 c 5.257143,0 9.52381,4.266666 9.52381,9.523809 0,5.257142 -4.266667,9.523809 -9.52381,9.523809 C 4.742857,19.523809 0.476191,15.257142 0.476191,10 0.476191,4.742857 4.742857,0.476191 10,0.476191 Z"
     style="fill:none;stroke:#00a79d;stroke-width:0.952381;stroke-opacity:1;paint-order:normal"
     id="path1-1" />
</svg>
