<?xml version="1.0" encoding="UTF-8" standalone="no"?>
<svg
   width="40"
   height="40"
   viewBox="0 0 40 40"
   fill="none"
   version="1.1"
   id="svg1"
   sodipodi:docname="bnd21.svg"
   inkscape:version="1.3 (0e150ed6c4, 2023-07-21)"
   xmlns:inkscape="http://www.inkscape.org/namespaces/inkscape"
   xmlns:sodipodi="http://sodipodi.sourceforge.net/DTD/sodipodi-0.dtd"
   xmlns="http://www.w3.org/2000/svg"
   xmlns:svg="http://www.w3.org/2000/svg">
  <sodipodi:namedview
     id="namedview1"
     pagecolor="#505050"
     bordercolor="#ffffff"
     borderopacity="1"
     inkscape:showpageshadow="0"
     inkscape:pageopacity="0"
     inkscape:pagecheckerboard="1"
     inkscape:deskcolor="#505050"
     inkscape:zoom="28.390337"
     inkscape:cx="5.6709436"
     inkscape:cy="10.549364"
     inkscape:window-width="1920"
     inkscape:window-height="992"
     inkscape:window-x="1911"
     inkscape:window-y="-9"
     inkscape:window-maximized="1"
     inkscape:current-layer="svg1" />
  <path
     d="m 19.999998,0 c 11.04,0 20,8.9599998 20,19.999999 0,11.04 -8.96,20 -20,20 C 8.9599998,39.999999 0,31.039999 0,19.999999 0,8.9599998 8.9599998,0 19.999998,0 Z m 0,18 h -7.999999 v 3.999999 h 7.999999 v 6 l 8,-8 -8,-7.999999 z"
     fill="#177ee5"
     id="path1"
     sodipodi:nodetypes="ssssscccccccc"
     style="stroke-width:2" />
  <path
     d="m 19.999998,0.952382 c 10.514286,0 19.04762,8.5333324 19.04762,19.047617 0,10.514284 -8.533334,19.047618 -19.04762,19.047618 -10.5142852,0 -19.04761764,-8.533334 -19.04761764,-19.047618 0,-10.5142846 8.53333244,-19.047617 19.04761764,-19.047617 z"
     style="fill:none;stroke:#c9c9c9;stroke-width:1.90476;stroke-opacity:1;paint-order:normal"
     id="path1-1" />
  <defs
     id="defs1">
    <clipPath
       id="clip0_297_16852">
      <rect
         width="20"
         height="20"
         fill="#ffffff"
         id="rect1"
         x="0"
         y="0" />
    </clipPath>
  </defs>
</svg>
