<svg width="24" height="24" viewBox="0 0 24 24" fill="none" xmlns="http://www.w3.org/2000/svg">
<path fill-rule="evenodd" clip-rule="evenodd" d="M18 11C20.7614 11 23 8.76142 23 6C23 3.23858 20.7614 1 18 1C15.2386 1 13 3.23858 13 6C13 8.76142 15.2386 11 18 11ZM18 5.25H15V6.75H18V9L21 6L18 3V5.25Z" fill="#177EE5"/>
<path d="M22.0284 11.7254C20.8892 12.5284 19.4997 13 18 13C14.134 13 11 9.86599 11 6C11 4.51469 11.4626 3.13743 12.2516 2.00444C12.1681 2.00149 12.0842 2 12 2C8.13401 2 5 5.13401 5 9C5 9.11351 5.0027 9.22639 5.00804 9.33857C2.67346 10.16 1 12.3846 1 15C1 18.3137 3.68629 21 7 21H17C20.3137 21 23 18.3137 23 15C23 13.7918 22.6429 12.667 22.0284 11.7254Z" fill="#177EE5"/>
</svg>
