<svg width="24" height="24" viewBox="0 0 24 24" fill="none" xmlns="http://www.w3.org/2000/svg">
<path fill-rule="evenodd" clip-rule="evenodd" d="M23 6C23 8.76142 20.7614 11 18 11C15.2386 11 13 8.76142 13 6C13 3.23858 15.2386 1 18 1C20.7614 1 23 3.23858 23 6ZM15 5.63581L17.5 8.13581L21 4.63581L20 3.63574L17.5 6.13581L16 4.63581L15 5.63581Z" fill="#00A79D"/>
<path d="M18 13C19.4997 13 20.8892 12.5284 22.0284 11.7254C22.6429 12.667 23 13.7918 23 15C23 18.3137 20.3137 21 17 21H7C3.68629 21 1 18.3137 1 15C1 12.3846 2.67346 10.16 5.00804 9.33857C5.0027 9.22639 5 9.11351 5 9C5 5.13401 8.13401 2 12 2C12.0842 2 12.1681 2.00149 12.2516 2.00444C11.4626 3.13743 11 4.51469 11 6C11 9.86599 14.134 13 18 13Z" fill="#00A79D"/>
</svg>
