<svg width="24" height="24" viewBox="0 0 24 24" fill="none" xmlns="http://www.w3.org/2000/svg">
<path d="M12 22C6.47715 22 2 17.5228 2 12C2 6.47715 6.47715 2 12 2C17.5228 2 22 6.47715 22 12C22 17.5228 17.5228 22 12 22Z" fill="#CCCCCC"/>
<path d="M11.0001 17V15H13.0001V17H11.0001Z" fill="#1A1A1A"/>
<path d="M15.5001 10C15.5001 11.5855 14.4458 12.9248 13.0001 13.3551V14H11.0001V12.5C11.0001 11.9477 11.4478 11.5 12.0001 11.5C12.8285 11.5 13.5001 10.8284 13.5001 10C13.5001 9.17157 12.8285 8.5 12.0001 8.5C11.2724 8.5 10.6657 9.01823 10.5289 9.70577L8.56738 9.31346C8.88644 7.70919 10.3021 6.5 12.0001 6.5C13.9331 6.5 15.5001 8.067 15.5001 10Z" fill="#1A1A1A"/>
</svg>
