<?xml version="1.0" encoding="UTF-8" standalone="no"?>
<!-- Generator: Adobe Illustrator 18.0.0, SVG Export Plug-In . SVG Version: 6.00 Build 0)  -->

<svg
   version="1.1"
   id="Layer_1"
   x="0px"
   y="0px"
   viewBox="0 0 36.099998 43.900001"
   enable-background="new 0 0 56.7 56.7"
   xml:space="preserve"
   sodipodi:docname="SOPO FOCUS.svg"
   inkscape:version="1.3 (0e150ed6c4, 2023-07-21)"
   width="36.099998"
   height="43.900002"
   xmlns:inkscape="http://www.inkscape.org/namespaces/inkscape"
   xmlns:sodipodi="http://sodipodi.sourceforge.net/DTD/sodipodi-0.dtd"
   xmlns="http://www.w3.org/2000/svg"
   xmlns:svg="http://www.w3.org/2000/svg"><defs
   id="defs2" /><sodipodi:namedview
   id="namedview2"
   pagecolor="#505050"
   bordercolor="#ffffff"
   borderopacity="1"
   inkscape:showpageshadow="0"
   inkscape:pageopacity="0"
   inkscape:pagecheckerboard="1"
   inkscape:deskcolor="#505050"
   inkscape:zoom="11.313708"
   inkscape:cx="31.819805"
   inkscape:cy="14.053747"
   inkscape:window-width="1920"
   inkscape:window-height="992"
   inkscape:window-x="-9"
   inkscape:window-y="-9"
   inkscape:window-maximized="1"
   inkscape:current-layer="Layer_1" />&#10;<g
   id="g2"
   transform="translate(-10.3,-6.4)">&#10;	&#10;	<path
   fill="#46beab"
   d="m 30.319648,18.155 c -2.215796,0 -4.330875,0.906462 -5.841645,2.417232 -1.611488,1.611489 -2.417232,3.625849 -2.417232,5.841646 0,2.316514 0.906462,4.330875 2.417232,5.841645 L 20.55,36.183526 c 1.510771,1.51077 3.625849,2.417232 5.841646,2.417232 2.215796,0 4.330875,-0.906462 5.841645,-2.417232 1.611488,-1.611489 2.417232,-3.625849 2.417232,-5.841646 0,-2.316514 -0.906462,-4.330875 -2.417232,-5.841645 l 3.928003,-3.928003 C 34.650523,19.16218 32.636163,18.155 30.319648,18.155 Z"
   id="path1"
   style="stroke-width:1.00718" />&#10;	<path
   fill="#1a1a1a"
   d="m 40.5,16.2 3.9,-3.9 C 40.8,8.7 35.8,6.4 30.3,6.4 c -5.5,0 -10.5,2.2 -14.1,5.9 -3.6,3.6 -5.9,8.6 -5.9,14.1 0,5.5 2.2,10.5 5.9,14.1 l -3.9,3.9 c 3.6,3.6 8.6,5.9 14.1,5.9 5.5,0 10.5,-2.2 14.1,-5.9 3.6,-3.6 5.9,-8.6 5.9,-14.1 0,-5.5 -2.2,-10.5 -5.9,-14.1 z m -5.9,14.1 c 0,2.2 -0.9,4.3 -2.4,5.8 -1.6,1.6 -3.6,2.4 -5.8,2.4 -2.3,0 -4.3,-0.9 -5.8,-2.4 l 3.9,-3.9 c -1.5,-1.5 -2.4,-3.6 -2.4,-5.8 0,-2.2 0.9,-4.3 2.4,-5.8 1.6,-1.6 3.6,-2.4 5.8,-2.4 2.3,0 4.3,0.9 5.8,2.4 l -3.9,3.9 c 1.5,1.5 2.4,3.5 2.4,5.8 z"
   id="path2" />&#10;</g>&#10;</svg>
